<?xml version="1.0" encoding="utf-8"?>
<!-- Generator: Adobe Illustrator 25.4.0, SVG Export Plug-In . SVG Version: 6.00 Build 0)  -->
<svg version="1.1" id="Capa_1" xmlns="http://www.w3.org/2000/svg" xmlns:xlink="http://www.w3.org/1999/xlink" x="0px" y="0px"
	 viewBox="0 0 120 120" style="enable-background:new 0 0 120 120;" xml:space="preserve">
<g>
	<g>
		<path d="M0.9,55.3l7,0.6l0.3-3.6l1.3,0.1l-0.5,5l-8.3-0.8L0.9,55.3z"/>
		<path d="M2.9,43.7L4.1,44l-1,4.4L5.3,49l0.9-4l1.2,0.3l-0.9,4l2.2,0.5l1-4.6l1.2,0.3l-1.4,6l-8.2-1.9L2.9,43.7z"/>
		<path d="M11.7,38.4l-1.6,3.9l1.5,1.4l-0.5,1.4l-6.4-6.5l0.5-1.3l9.1-0.3l-0.6,1.4L11.7,38.4z M10.4,38.4l-4,0.1l2.9,2.8L10.4,38.4
			z"/>
		<path d="M17.5,31.7h-3c-0.1,0.1-0.1,0.2-0.2,0.3l-1,1.7l2.2,1.3l-0.7,1.2l-7.1-4.3L9.4,29c1.1-1.8,2.6-2.3,4.2-1.4
			c1.1,0.7,1.6,1.7,1.4,2.9l3.4-0.2L17.5,31.7z M13.3,31.4c0.7-1.1,0.6-2-0.4-2.6c-0.9-0.6-1.8-0.2-2.4,0.9l-1,1.7l2.8,1.7
			L13.3,31.4z"/>
		<path d="M13.8,22.7l7.5,0.6l-4.5-3.9l0.9-1l6.3,5.5l-0.9,1l-7.4-0.6l4.5,3.9l-0.9,1.1L13,23.8L13.8,22.7z"/>
		<path d="M33.5,8.2c-1.5,0.8-2,2.5-1.3,4c0.8,1.5,2.5,2,4,1.2c0.7-0.4,1.3-1.1,1.6-2l1.2,0.4c-0.4,1.1-1.2,2.2-2.2,2.7
			c-2.2,1.1-4.7,0.4-5.8-1.7c-1.1-2.1-0.3-4.6,1.9-5.8c1-0.6,2.3-0.7,3.4-0.3L36,8C35.3,7.8,34.3,7.8,33.5,8.2z"/>
		<path d="M45.7,10.9L43.5,9c-0.1,0-0.2,0.1-0.4,0.1l-1.9,0.6l0.8,2.4l-1.3,0.5L38,4.7l3.2-1.1c2-0.7,3.5-0.1,4.1,1.6
			c0.4,1.3,0.1,2.4-0.8,3.1l2.7,2L45.7,10.9z M42.7,8c1.2-0.4,1.7-1.2,1.4-2.2c-0.4-1-1.2-1.3-2.4-0.9l-1.9,0.6l1.1,3.1L42.7,8z"/>
		<path d="M53.1,0.9l0.2,1.2l-4.5,0.8l0.4,2.2l4-0.7l0.2,1.2l-4,0.7l0.4,2.3l4.6-0.8L54.6,9l-6,1l-1.4-8.2L53.1,0.9z"/>
		<path d="M61.4,7l-4.2,0.1L56.5,9H55l3.6-8.4H60l3.8,8.3h-1.5L61.4,7z M60.9,5.8l-1.6-3.7l-1.5,3.7H60.9z"/>
		<path d="M70.5,1.4l-0.2,1.3l-2.6-0.3l-0.8,7l-1.4-0.2l0.8-7l-2.6-0.3l0.2-1.3L70.5,1.4z"/>
		<path d="M73.6,2.1l-1.8,8.2L70.4,10l1.8-8.2L73.6,2.1z"/>
		<path d="M76.9,3l0.2,7.3l4.7-5.6l1.4,0.5L77.3,12l-1.4-0.5l-0.4-9L76.9,3z"/>
		<path d="M90.4,8.8l-0.6,1.1l-4-2.1l-1,2l3.6,1.9l-0.6,1.1l-3.6-1.9l-1.1,2l4.2,2.2l-0.6,1.1l-5.4-2.8L85.1,6L90.4,8.8z"/>
		<path d="M102.9,20.6c-0.6-0.6-1.1-0.8-1.6-0.4c-1.3,1.2,2.4,3.9,0.2,5.9c-1.1,1-2.7,0.7-3.9-0.7c-0.9-1-1.3-2.2-1.3-3.4l1.3-0.4
			c0,1.2,0.4,2.2,1,2.9c0.7,0.7,1.3,0.9,1.8,0.5c1.4-1.3-2.4-3.9-0.3-5.9c1.1-1,2.5-0.7,3.8,0.7c0.7,0.8,1.2,1.8,1.3,2.7L104,23
			C103.8,21.9,103.3,21.1,102.9,20.6z"/>
		<path d="M108.4,25.4l-3,2l2.4,3.7l3-2l0.8,1.2l-7,4.6l-0.8-1.2l2.9-1.9l-2.4-3.7l-2.9,1.9l-0.8-1.2l7-4.6L108.4,25.4z"/>
		<path d="M109.4,40.7l-1.7-3.9h-2l-0.6-1.3h9.1l0.6,1.3l-6.2,6.7l-0.6-1.4L109.4,40.7z M110.3,39.7l2.8-2.9h-4L110.3,39.7z"/>
		<path d="M110.1,49.5l2.1-2.1c0-0.1-0.1-0.2-0.1-0.4l-0.5-1.9l-2.4,0.6l-0.3-1.4l8.1-2.1l0.8,3.3c0.5,2.1-0.2,3.5-1.9,4
			c-1.3,0.3-2.4,0-3.1-1l-2.2,2.5L110.1,49.5z M113.3,46.7c0.3,1.3,1,1.8,2.1,1.6c1.1-0.3,1.4-1.1,1.1-2.4L116,44l-3.2,0.8
			L113.3,46.7z"/>
		<path d="M119.5,57.6l-1.3,0.1l-0.4-4.5l-2.3,0.2l0.4,4.1l-1.2,0.1l-0.4-4.1l-2.3,0.2l0.4,4.7l-1.3,0.1l-0.6-6.1l8.3-0.8
			L119.5,57.6z"/>
		<path d="M107.3,88.9c-2.1-1.1-2.9-3.5-1.7-5.8l1.5-3l7.4,3.8l-1.6,3.1C111.9,89.2,109.5,90,107.3,88.9z M108,87.6
			c1.5,0.8,3.2,0.2,3.9-1.3l0.9-1.8l-5.2-2.7l-0.9,1.8C106,85.2,106.5,86.8,108,87.6z"/>
		<path d="M106.1,97.7l-1-0.7l2.7-3.7L106,92l-2.4,3.3l-1-0.7l2.4-3.3l-1.9-1.4l-2.8,3.8l-1-0.7l3.6-4.9l6.7,4.9L106.1,97.7z"/>
		<path d="M101.5,100.8c0.6-0.6,0.7-1.2,0.3-1.6c-1.3-1.3-3.8,2.6-5.9,0.5c-1.1-1-0.8-2.6,0.5-3.9c0.9-0.9,2.2-1.4,3.3-1.5l0.4,1.3
			c-1.2,0.1-2.2,0.5-2.9,1.2c-0.7,0.7-0.8,1.4-0.4,1.8c1.3,1.3,3.8-2.6,5.9-0.5c1,1,0.8,2.5-0.5,3.8c-0.8,0.8-1.8,1.3-2.7,1.5
			l-0.5-1.3C100.3,101.7,101.1,101.2,101.5,100.8z"/>
		<path d="M97.3,106.3L92,99.8l1.1-0.9l5.3,6.5L97.3,106.3z"/>
		<path d="M87.9,107.7l-1,0.7l-1.7-2.6c0.4-1,1.2-2,2.1-2.7c2.1-1.3,4.7-0.8,6,1.2s0.6,4.6-1.5,6c-1,0.6-2.3,0.9-3.3,0.7l0.1-1.3
			c0.9,0.2,1.8,0,2.5-0.5c1.4-0.9,1.9-2.7,1-4.1s-2.7-1.8-4.2-0.9c-0.5,0.3-1,0.9-1.3,1.5L87.9,107.7z"/>
		<path d="M85.2,113.9l-6.5-3.8l2.3,5.5l-1.3,0.5l-3.2-7.7l1.3-0.5l6.4,3.8l-2.3-5.5l1.3-0.5l3.2,7.7L85.2,113.9z"/>
		<path d="M66,117.1c-0.1-0.9,0.3-1.7,1.1-2.1c-1.1,0-1.9-0.7-2.1-1.8c-0.2-1.4,0.8-2.4,2.6-2.8l3.7-0.6l1.3,8.2l-3.6,0.6
			C67.4,119,66.2,118.4,66,117.1z M66.5,113.2c0.1,0.7,0.8,1.1,1.9,0.9l2.1-0.3l-0.4-2.4l-2.1,0.3C67,111.9,66.4,112.4,66.5,113.2z
			 M67.4,116.6c0.1,0.7,0.7,1,1.6,0.8l2.1-0.3l-0.4-2.2l-2.1,0.3C67.8,115.4,67.3,115.9,67.4,116.6z"/>
		<path d="M59.9,113.8V111h1.4v2.7l3.2,5.6h-1.4l-2.4-4l-2.3,4.1H57L59.9,113.8z"/>
		<path d="M48.9,111c-1.3-0.3-2.3,0.3-2.6,1.7l-1,4.8l-1.4-0.3l1-4.8c0.5-2.1,2.1-3.1,4.3-2.7c2.2,0.5,3.3,2.1,2.8,4.2l-1,4.8
			l-1.4-0.3l1-4.8C51,112.3,50.3,111.3,48.9,111z"/>
		<path d="M39.9,115.9l2.7-7.9l1.3,0.5l-2.7,7.9L39.9,115.9z"/>
		<path d="M32,107.7c1.1-2.2,3.5-2.9,5.7-1.8l3,1.5l-3.7,7.5l-3.1-1.5C31.8,112.3,30.9,109.9,32,107.7z M33.3,108.3
			c-0.7,1.5-0.1,3.2,1.3,3.9l1.8,0.9l2.6-5.2l-1.8-0.9C35.7,106.3,34,106.8,33.3,108.3z"/>
		<path d="M23.2,106.6l0.7-1l3.7,2.6l1.3-1.8l-3.3-2.4l0.7-1l3.3,2.4l1.3-1.9l-3.8-2.7l0.7-1l5,3.5l-4.8,6.8L23.2,106.6z"/>
		<path d="M22.8,94.9l-0.6,4.6l2.1-0.1l1.5-1.5l1,1l-5.8,6l-1-1l3-3.1l-5.9,0.3l-1.2-1.2l4.8-0.3l0.9-5.8L22.8,94.9z"/>
		<path d="M17.7,88.5l-1.3,4.4l2.1,0.2l1.7-1.3l0.8,1.1l-6.7,5l-0.8-1.1l3.5-2.6l-5.8-0.6l-1-1.3l4.8,0.5l1.8-5.6L17.7,88.5z"/>
		<path d="M8.9,81.1c2.1-1.1,4.7-0.2,5.8,2s0.4,4.8-1.8,5.9c-2.1,1.1-4.6,0.2-5.8-2C6,84.7,6.7,82.2,8.9,81.1z M12.2,87.7
			c1.5-0.8,2-2.6,1.3-4c-0.7-1.5-2.5-2.1-4-1.3c-1.5,0.8-2,2.5-1.3,4C9,87.8,10.8,88.5,12.2,87.7z"/>
	</g>
	<path d="M113.9,74.8l0.1-2.4c0-1.1-0.5-1.9-1.4-2.3l-2.2-1c-0.2-0.1-0.1-0.2,0-0.3l2.4,0.1c1.1,0,1.9-0.5,2.3-1.4l1-2.2
		c0.1-0.2,0.2-0.1,0.3,0l-0.1,2.4c0,1.1,0.5,1.9,1.4,2.3l2.2,1c0.2,0.1,0.1,0.2,0,0.3l-2.4-0.1c-1.1,0-1.9,0.5-2.3,1.4l-1,2.2
		C114.1,75,114,74.9,113.9,74.8z"/>
	<path d="M4.7,75l-0.4-2.4c-0.2-1.1-0.9-1.8-1.9-2L0,70c-0.2,0-0.1-0.2,0-0.3l2.4-0.4c1.1-0.2,1.8-0.9,2-1.9L5,65
		c0-0.2,0.2-0.1,0.3,0l0.4,2.4c0.2,1.1,0.9,1.8,1.9,2L10,70c0.2,0,0.1,0.2,0,0.3l-2.4,0.4c-1.1,0.2-1.8,0.9-2,1.9L5,75
		C4.9,75.2,4.8,75.1,4.7,75z"/>
	<circle cx="25.6" cy="16.9" r="1.3"/>
	<circle cx="94.5" cy="16.1" r="1.3"/>
</g>
</svg>
