<?xml version="1.0" encoding="utf-8"?>
<!-- Generator: Adobe Illustrator 25.4.0, SVG Export Plug-In . SVG Version: 6.00 Build 0)  -->
<svg version="1.1" id="图层_1" xmlns="http://www.w3.org/2000/svg" xmlns:xlink="http://www.w3.org/1999/xlink" x="0px" y="0px"
	 viewBox="0 0 1024 1024" style="enable-background:new 0 0 1024 1024;" xml:space="preserve">
<style type="text/css">
	.st0{display:none;}
	.st1{fill-rule:evenodd;clip-rule:evenodd;fill:#05EB05;}
</style>
<g id="页面-1">
	
		<g id="smile" transform="translate(512.000000, 512.000000) rotate(-180.000000) translate(-512.000000, -512.000000) translate(0.000000, -0.000000)">
		<ellipse id="椭圆形" class="st0" cx="508.3" cy="513.3" rx="414.8" ry="389.7"/>
		<g id="形状">
			<path class="st1" d="M512,0C299.9,0,118,128.9,40.2,312.7C13.6,375.8-0.1,443.5,0,512c0,212.1,128.9,394,312.7,471.8
				c63.1,26.6,130.8,40.3,199.3,40.2c212.1,0,394-128.9,471.8-312.7c26.6-63.1,40.3-130.8,40.2-199.3C1024,229.2,794.8,0,512,0z
				 M627.8,213c24.9,0,45,56.4,45,126s-20.1,126-45,126c-24.9,0-45-56.4-45-126S603,213,627.8,213z M397.4,213
				c24.8,0,45,56.4,45,126s-20.2,126-45,126c-24.8,0-45-56.4-45-126S372.5,213,397.4,213z M877,554.3c-2.7,1.6-5.8,2.4-9,2.4
				c-6.4,0-12.4-3.4-15.6-9c-3.5-6.1-8.3-11.4-14-15.6c-13,179.7-169.2,314.9-348.9,302c-78.1-5.6-151.6-39.2-207.1-94.6
				c-56.1-56.1-89.3-129-94.8-207.3c-5.7,4.1-10.4,9.4-13.9,15.5c-3.2,5.6-9.2,9-15.6,9c-3.2,0-6.3-0.8-9-2.4
				c-8.6-5-11.6-16-6.6-24.6l0,0c23.8-41.2,76.5-55.4,117.7-31.6c0.1,0,0.1,0.1,0.2,0.1c8.6,5,11.6,16,6.6,24.6
				c-5,8.6-16,11.6-24.6,6.6c-5.9-3.5-12.6-5.7-19.4-6.4c7.8,160.1,144,283.6,304.2,275.8c71.9-3.5,140-33.7,190.9-84.6
				c51.2-50.8,81.4-119,84.7-191.1c-6.8,0.8-13.4,3-19.3,6.4c-8.6,5-19.6,2-24.6-6.6c-5-8.6-2-19.6,6.6-24.6
				c41.3-23.8,94.1-9.7,118,31.6c5,8.4,2.2,19.3-6.2,24.2C877.2,554.2,877.1,554.2,877,554.3z"/>
		</g>
	</g>
</g>
</svg>
