<svg id="图层_1" data-name="图层 1" xmlns="http://www.w3.org/2000/svg" viewBox="0 0 1024 1024"><defs><style>.cls-1{fill:#fff;}</style></defs><g id="smile"><path class="cls-1" d="M512,0C299.9,0,118,128.9,40.2,312.7A510.69,510.69,0,0,0,0,512C0,724.1,128.9,906,312.7,983.8A510.69,510.69,0,0,0,512,1024c212.1,0,394-128.9,471.8-312.7A510.69,510.69,0,0,0,1024,512C1024,229.2,794.8,0,512,0ZM627.8,213c24.9,0,45,56.4,45,126s-20.1,126-45,126-45-56.4-45-126S603,213,627.8,213Zm-230.4,0c24.8,0,45,56.4,45,126s-20.2,126-45,126-45-56.4-45-126S372.5,213,397.4,213ZM877,554.3a18.12,18.12,0,0,1-9,2.4,17.91,17.91,0,0,1-15.6-9,51.32,51.32,0,0,0-14-15.6,326.29,326.29,0,0,1-556,207.4c-56.1-56.1-89.3-129-94.8-207.3a50.52,50.52,0,0,0-13.9,15.5,17.91,17.91,0,0,1-15.6,9,18.4,18.4,0,0,1-9-2.4,18,18,0,0,1-6.6-24.6,86.2,86.2,0,0,1,117.9-31.5,18,18,0,1,1-18,31.2A48.35,48.35,0,0,0,223,523,290.3,290.3,0,0,0,718.1,714.2a288,288,0,0,0,84.7-191.1,51.17,51.17,0,0,0-19.3,6.4,18,18,0,0,1-18-31.2,86.45,86.45,0,0,1,118,31.6A17.7,17.7,0,0,1,877,554.3Z"/></g></svg>