<?xml version="1.0" encoding="UTF-8"?>
<svg width="163px" height="163px" viewBox="0 0 163 163" version="1.1" xmlns="http://www.w3.org/2000/svg" xmlns:xlink="http://www.w3.org/1999/xlink">
    <title>about-wechat</title>
    <g id="页面-1" stroke="none" stroke-width="1" fill="none" fill-rule="evenodd">
        <g id="about-wechat">
            <path d="M9.8,0.5 L153.1,0.5 C158.3,0.5 162.4,4.7 162.4,9.8 L162.4,153.1 C162.4,158.3 158.2,162.4 153.1,162.4 L9.8,162.4 C4.6,162.4 0.5,158.2 0.5,153.1 L0.5,9.8 C0.5,4.7 4.7,0.5 9.8,0.5 Z" id="路径" fill="#FFFFFF" fill-rule="nonzero" opacity="0.4"></path>
            <path d="M9.8,0.5 L153.1,0.5 C158.3,0.5 162.4,4.7 162.4,9.8 L162.4,153.1 C162.4,158.3 158.2,162.4 153.1,162.4 L9.8,162.4 C4.6,162.4 0.5,158.2 0.5,153.1 L0.5,9.8 C0.5,4.7 4.7,0.5 9.8,0.5 Z" id="路径" stroke="#000000"></path>
            <path d="M151.9,156.5 L11.1,156.5 C8.6,156.5 6.5,154.5 6.5,152 L6.5,11.1 C6.5,8.6 8.6,6.6 11.1,6.6 L152,6.6 C154.5,6.6 156.6,8.7 156.6,11.2 L156.6,152 C156.5,154.5 154.5,156.5 151.9,156.5 Z M64.7,16.1 L64.7,19.3 C64.7,19.7 64.8,19.9 65.2,19.9 L67.9,19.9 C68.3,19.9 68.4,19.8 68.4,19.4 L68.4,16.8 C68.4,16.3 68.2,16.2 67.8,16.2 L64.7,16.1 L64.7,13 C64.7,12.6 64.6,12.4 64.1,12.4 L61.5,12.4 C61.1,12.4 60.9,12.6 61,13 L61,15.6 C61,16 61.1,16.2 61.5,16.2 C62.5,16.1 63.6,16.1 64.7,16.1 L64.7,16.1 Z M75.8,16.1 C75.8,15 75.8,13.9 75.9,12.8 C75.9,12.4 75.7,12.4 75.4,12.4 L72.8,12.4 C72.3,12.4 72.2,12.5 72.2,13 L72.2,15.5 C72.2,16 72.4,16.1 72.8,16.1 L75.8,16.1 L75.8,19.9 L72.7,19.9 C72.4,19.9 72.1,19.9 72.1,20.3 L72.1,23.2 C72.1,23.4 72.3,23.6 72.5,23.6 L75.4,23.6 C75.6,23.5 75.7,23.4 75.8,23.2 L75.8,19.9 L79.6,19.9 L79.6,23 C79.6,23.4 79.7,23.6 80.2,23.6 L82.8,23.6 C83.2,23.6 83.4,23.5 83.4,23 L83.4,20.3 C83.4,20 83.3,19.8 82.9,19.8 C81.8,19.8 80.7,19.8 79.6,19.8 L79.6,16 L86.6,16 C87,16 87.2,15.9 87.2,15.4 L87.2,12.8 C87.2,12.4 87,12.2 86.6,12.2 L80.3,12.2 C79.8,12.2 79.7,12.4 79.7,12.9 L79.7,16 L75.8,16.1 Z M53.5,42.2 L53.5,46 L46.7,46 C46.1,46 46,46.2 46,46.7 L46,49.1 C46,49.6 45.8,49.8 45.3,49.8 L42.9,49.8 C42.4,49.8 42.2,50 42.2,50.5 L42.2,52.9 C42.2,53.4 42,53.5 41.6,53.5 L38.5,53.5 C38.5,52.5 38.4,51.4 38.4,50.4 C38.4,49.9 38.2,49.7 37.7,49.7 L31.5,49.7 C31,49.7 30.8,49.9 30.8,50.4 L30.8,56.5 C30.8,57.1 30.6,57.2 30.1,57.2 L27.6,57.2 C27.2,57.2 27.1,57.3 27.1,57.7 L27.1,60.3 C27.1,60.7 27.2,60.9 27.7,60.9 L30.3,60.9 C30.7,60.9 30.9,61 30.9,61.5 L30.9,64 C30.9,64.5 30.7,64.6 30.3,64.6 L27.8,64.6 C27.3,64.6 27.2,64.8 27.2,65.2 L27.2,67.4 C27.2,68.3 27.2,68.3 28.1,68.3 L45.9,68.3 L45.9,71.4 C45.9,71.9 46.1,72.1 46.6,72.1 L49,72.1 C49.5,72.1 49.6,72.2 49.6,72.7 L49.6,75.3 C49.6,75.5 49.8,75.8 50,75.8 L53.4,75.8 L53.4,79.6 L42.8,79.6 C42.3,79.6 42.1,79.4 42.1,78.9 L42.1,76.5 C42.1,76 41.9,75.8 41.4,75.8 L38.4,75.8 L38.4,72.7 C38.4,72.3 38.3,72.1 37.8,72.1 L31.5,72.1 C31,72.1 30.9,72.3 30.9,72.7 L30.9,75.8 C29.9,75.8 28.9,75.9 28,75.8 C27.4,75.8 27.2,76 27.2,76.6 L27.2,83.3 L24.1,83.3 C23.6,83.3 23.5,83.2 23.5,82.7 L23.5,80.3 C23.5,79.7 23.3,79.5 22.7,79.5 L19.7,79.5 L19.7,72.7 C19.7,72.5 19.5,72.1 19.4,72.1 L16,72.1 L16,61.8 C16,61 16,61 16.8,61 L19,61 C19.6,61 19.7,60.8 19.7,60.3 L19.7,54.3 C19.7,53.7 19.9,53.5 20.5,53.5 L26.6,53.5 C27.1,53.5 27.3,53.3 27.2,52.8 L27.2,50.4 C27.2,49.9 27,49.7 26.6,49.7 L12.9,49.7 C12.4,49.7 12.3,49.9 12.3,50.4 L12.3,71.5 C12.3,72.1 12.5,72.2 13,72.2 L16,72.2 L16,75.3 C16,75.8 15.8,75.9 15.4,75.9 L13,75.9 C12.5,75.9 12.3,76.1 12.3,76.6 L12.3,86.4 C12.3,86.9 12.4,87.1 13,87.1 L16,87.1 L16,90 C16,90.6 15.9,90.8 15.3,90.8 L12.8,90.8 C12.4,90.8 12.2,90.9 12.2,91.3 L12.2,97.7 C12.2,98.1 12.4,98.3 12.8,98.3 L15.4,98.3 C15.8,98.3 16,98.1 16,97.7 L16,95.1 C16,94.7 16.1,94.5 16.6,94.5 L18.9,94.5 C19.7,94.5 19.8,94.5 19.8,93.7 L19.8,87.1 L22.9,87.1 C23.4,87.1 23.5,87.3 23.5,87.7 L23.5,90.1 C23.5,90.6 23.6,90.8 24.2,90.8 L27.5,90.8 C28.6,90.8 29.8,90.8 31,90.7 L31,97.6 C31,98.1 30.8,98.3 30.3,98.3 L27.8,98.3 C27.4,98.3 27.2,98.2 27.2,97.7 L27.2,95.2 C27.2,94.7 27.1,94.4 26.5,94.5 L24.3,94.5 C23.6,94.5 23.5,94.5 23.5,95.3 L23.5,105 C23.5,105.5 23.4,105.8 22.8,105.7 C22,105.7 21.2,105.7 20.4,105.7 C19.9,105.7 19.7,105.5 19.7,105 L19.7,102.6 C19.7,102.2 19.6,102 19.1,102 L16.5,102 C16.1,102 15.9,102.2 16,102.6 L16,105.2 C16,105.6 16.1,105.8 16.6,105.8 L19.2,105.8 C19.6,105.8 19.8,105.9 19.8,106.3 L19.8,112.7 C19.8,113.1 19.6,113.3 19.2,113.3 L16,113.3 L16,110.1 C16,109.7 15.8,109.5 15.4,109.5 L12.8,109.5 C12.4,109.5 12.2,109.6 12.2,110.1 L12.2,112.7 C12.2,113.2 12.3,113.3 12.8,113.3 L15.9,113.3 L15.9,116.5 C15.9,116.9 15.8,117.1 15.3,117.1 L12.7,117.1 C12.3,117.1 12.1,117.2 12.1,117.7 L12.1,120.3 C12.1,120.8 12.3,120.9 12.7,120.9 L19,120.9 C19.5,120.9 19.6,120.7 19.6,120.3 L19.6,117.8 C19.6,117.4 19.7,117.2 20.2,117.2 L26.8,117.2 C27.3,117.2 27.4,117.4 27.4,117.8 L27.4,120.2 C27.4,120.7 27.5,120.9 28.1,120.9 L38,120.9 C38.5,120.9 38.7,120.7 38.7,120.2 L38.7,117.1 L45.5,117.1 C46.1,117.1 46.3,116.9 46.2,116.3 L46.2,113.9 C46.2,113.4 46.4,113.3 46.8,113.3 L49.9,113.3 L49.9,116.4 C49.9,117 50.1,117.1 50.6,117.1 L53.7,117.1 L53.7,120.2 C53.7,120.7 53.9,120.8 54.3,120.8 L56.9,120.8 C57.3,120.8 57.5,121 57.4,121.4 L57.4,124 C57.4,124.5 57.6,124.6 58,124.6 L60.6,124.6 C60.9,124.6 61.2,124.7 61.2,125.1 L61.2,128.3 L54.4,128.3 C54,128.3 53.7,128.4 53.7,128.9 L53.7,135.2 C53.7,135.6 53.8,135.8 54.2,135.8 L64.4,135.8 C64.8,135.8 64.9,135.6 64.9,135.3 L64.9,132.6 C64.9,132.2 64.7,132.1 64.4,132.1 L61.8,132.1 C61.3,132.1 61.1,131.9 61.1,131.4 C61.1,130.4 61.1,129.3 61.1,128.3 L64.4,128.3 C64.8,128.3 64.9,128.1 64.9,127.7 L64.9,121.4 C64.9,121 64.7,120.8 64.3,120.8 L61.8,120.8 C61.4,120.8 61.1,120.7 61.1,120.2 L61.1,113.9 C61.1,113.5 61.3,113.3 61.6,113.3 L64.2,113.3 C64.6,113.3 64.8,113.4 64.8,113.9 L64.8,116.3 C64.8,116.9 64.9,117.1 65.6,117.1 L71.6,117.1 C72.2,117.1 72.4,117.3 72.3,117.9 L72.3,120.3 C72.3,120.7 72.2,120.9 71.8,120.9 L69.2,120.9 C68.8,120.9 68.6,121 68.6,121.4 L68.6,124.1 C68.6,124.4 68.7,124.6 69.1,124.6 L72.4,124.6 L72.4,128.4 L69.3,128.4 C68.8,128.4 68.6,128.6 68.6,129.1 L68.6,135.1 C68.6,135.7 68.8,135.9 69.4,135.9 L75.4,135.9 C76,135.9 76.1,136.1 76.1,136.6 L76.1,139 C76.1,139.4 76,139.6 75.5,139.6 L73.1,139.6 C72.6,139.6 72.4,139.7 72.4,140.3 L72.4,146.4 C72.4,146.6 72.4,146.9 72.5,147.1 L69.2,147.1 C68.8,147.1 68.7,147.3 68.7,147.6 L68.7,150.2 C68.7,150.6 68.9,150.8 69.3,150.8 L71.7,150.8 C72.3,150.8 72.4,150.6 72.4,150.1 C72.4,149.1 72.4,148.1 72.5,147.1 L75.6,147.1 C76,147.1 76.2,147.2 76.2,147.7 L76.2,150.3 C76.2,150.7 76.3,150.9 76.8,150.9 L79.4,150.9 C79.9,150.9 80,150.7 80,150.3 L80,147.9 C80,147.4 80.1,147.2 80.6,147.2 L83,147.2 C83.5,147.2 83.6,147.4 83.6,147.8 L83.6,150.3 C83.6,150.7 83.7,150.9 84.2,150.9 L86.8,150.9 C87.2,150.9 87.4,150.7 87.4,150.3 L87.4,147.7 C87.4,147.2 87.6,147.1 88,147.1 L90.6,147.1 C91,147.1 91.2,147.3 91.1,147.7 L91.1,150.3 C91.1,150.7 91.2,150.9 91.7,150.9 L94.3,150.9 C94.7,150.9 94.9,150.7 94.9,150.3 L94.9,147.7 C94.9,147.2 95.1,147.1 95.5,147.1 L101.8,147.1 C102.2,147.1 102.4,147.2 102.4,147.7 L102.4,150.3 C102.4,150.7 102.5,150.9 103,150.9 L105.6,150.9 C106,150.9 106.2,150.8 106.2,150.3 L106.2,147.7 C106.2,147.3 106.3,147.1 106.8,147.1 L109.2,147.1 C109.8,147.1 110,147 110,146.3 L110,132.1 L113.1,132.1 C113.6,132.1 113.8,132 113.8,131.5 L113.8,128.4 L117,128.4 C117.4,128.4 117.6,128.5 117.6,128.9 L117.6,135.3 C117.6,135.7 117.5,135.9 117.1,135.9 L114.5,135.9 C114.1,135.9 113.9,136 113.9,136.5 L113.9,146.5 C113.9,146.9 114,147.1 114.5,147.1 L116.9,147.1 C117.7,147.1 117.7,147.3 117.7,147.9 L117.7,150.2 C117.7,150.6 117.8,150.8 118.3,150.8 L128,150.8 C128.4,150.8 128.6,150.7 128.6,150.3 L128.6,147 L139.2,147 C139.4,147 139.7,146.8 139.8,146.6 L139.8,143.2 L143,143.2 C143.4,143.2 143.6,143 143.5,142.6 L143.5,140 C143.5,139.5 143.7,139.4 144.1,139.4 L146.7,139.4 C147.1,139.4 147.3,139.5 147.3,140 L147.3,142.6 C147.3,143 147.4,143.2 147.9,143.2 L150.5,143.2 C150.9,143.2 151.1,143 151.1,142.6 L151.1,136.4 C151.1,135.9 151,135.7 150.5,135.7 L148,135.7 C147.5,135.7 147.2,135.6 147.3,135 L147.3,132.7 C147.3,132.2 147.2,131.9 146.6,132 L143.5,132 L143.5,129 C143.5,128.4 143.7,128.3 144.2,128.3 L150.3,128.3 C150.8,128.3 151,128.1 151,127.6 L151,121.4 C151,121 150.9,120.8 150.4,120.8 L147.9,120.8 C147.4,120.8 147.2,120.6 147.2,120.1 L147.2,117 C148.2,117 149.2,116.9 150.2,117 C150.8,117 151,116.8 151,116.3 L151,95.3 C151,94.8 150.9,94.6 150.3,94.6 L148.1,94.6 C147.4,94.6 147.2,94.6 147.2,93.7 L147.2,87.2 L150.3,87.2 C150.7,87.2 150.9,87.1 150.9,86.6 L150.9,76.5 C150.9,76 150.7,75.9 150.3,75.9 L147.8,75.9 C147.3,75.9 147.1,76.1 147.2,76.6 L147.2,79 C147.2,79.6 147,79.7 146.5,79.7 C145.7,79.7 145,79.7 144.2,79.7 C143.6,79.7 143.4,79.5 143.4,78.9 L143.4,72.2 C144.4,72.2 145.5,72.1 146.5,72.2 C147,72.2 147.2,72 147.2,71.5 L147.2,68.5 L150.1,68.5 C151,68.5 151,68.5 151,67.6 L151,42.8 C151,42.4 150.9,42.3 150.5,42.3 L143.7,42.3 C143.3,42.3 143.1,42.4 143.1,42.8 L143.1,45.4 C143.1,45.9 143,46 142.5,46 L139.3,46 C139.3,45 139.3,43.9 139.4,42.9 C139.4,42.4 139.2,42.3 138.8,42.3 L128.8,42.3 C128.4,42.3 128.2,42.5 128.2,42.9 L128.2,46 L125.1,46 C124.7,46 124.5,46.1 124.5,46.5 L124.5,53 C124.5,53.4 124.6,53.5 125,53.5 L127.7,53.5 C128.1,53.5 128.2,53.4 128.2,53 L128.2,46 L139.4,46 L139.4,52.9 C139.4,53.4 139.5,53.5 140,53.5 L142.5,53.5 C143,53.5 143.1,53.3 143.1,52.8 L143.1,50.3 C143.1,49.9 143.2,49.7 143.6,49.7 L146.3,49.7 C146.7,49.7 146.8,49.9 146.8,50.2 L146.8,60.4 C146.8,60.8 146.7,60.9 146.3,60.9 L143,60.9 L143,57.7 C143,57.3 142.9,57.2 142.5,57.2 L139.9,57.2 C139.4,57.2 139.2,57.4 139.3,57.9 L139.3,61 L136.4,61 C135.8,61 135.6,60.8 135.6,60.2 L135.6,50.5 C135.6,50 135.5,49.8 134.9,49.8 L132.5,49.8 C132,49.8 131.9,50 131.9,50.5 L131.9,56.6 C131.9,57.2 131.7,57.3 131.1,57.3 L125.1,57.3 C124.5,57.3 124.4,57.5 124.4,58 L124.4,64 C124.4,64.6 124.2,64.8 123.6,64.8 L117,64.8 L117,53.5 L120.1,53.5 C120.5,53.5 120.7,53.4 120.7,52.9 L120.7,46.6 C120.7,46.2 120.5,46 120.1,46 L117,46 L117,42.9 C117,42.5 116.9,42.3 116.4,42.3 L110.1,42.3 C109.7,42.3 109.5,42.5 109.5,42.9 L109.5,46 L105.7,46 C105.7,45.8 105.8,45.5 105.8,45.3 L105.8,35.5 C105.8,34.9 106,34.7 106.6,34.8 L109.1,34.8 C109.6,34.8 109.7,35 109.7,35.4 L109.7,38 C109.7,38.4 109.8,38.6 110.3,38.6 L112.9,38.6 C113.4,38.6 113.5,38.4 113.5,38 L113.5,35.4 C113.5,34.9 113.6,34.7 114.1,34.8 L116.7,34.8 C117.1,34.8 117.3,35 117.3,35.4 L117.3,38 C117.3,38.4 117.5,38.6 117.9,38.6 L120.5,38.6 C120.9,38.6 121.1,38.4 121.1,38 L121.1,20.4 C121.1,19.9 120.9,19.8 120.5,19.8 L118.1,19.8 C117.5,19.8 117.4,19.6 117.4,19 L117.4,13 C117.4,12.6 117.3,12.4 116.8,12.4 L110.5,12.4 C110.1,12.4 109.9,12.5 109.9,13 L109.9,15.6 C109.9,16.1 110.1,16.2 110.5,16.2 L113,16.2 C113.4,16.2 113.7,16.3 113.6,16.8 L113.6,19.4 C113.6,19.8 113.4,20 113,20 L110.4,20 C110,20 109.8,20.2 109.8,20.6 L109.8,23 C109.8,23.4 109.9,23.6 110.4,23.6 L113,23.6 C113.4,23.6 113.6,23.7 113.6,24.2 L113.6,30.5 C113.6,30.9 113.5,31.1 113.1,31.1 L106.7,31.1 C106.3,31.1 106.1,30.9 106.2,30.5 L106.2,28.2 C106.2,27.4 106.2,27.3 105.3,27.3 L95.6,27.3 C95.1,27.3 94.9,27.2 94.9,26.6 L94.9,24.1 C94.9,23.7 94.8,23.5 94.3,23.5 L88,23.5 C87.6,23.5 87.4,23.6 87.4,24.1 L87.4,26.7 C87.4,27.1 87.2,27.3 86.8,27.3 L84,27.3 C83.6,27.3 83.4,27.5 83.4,27.9 L83.4,30.5 C83.4,30.9 83.2,31.1 82.8,31.1 L80.2,31.1 C79.8,31.1 79.6,31 79.6,30.5 L79.6,27.9 C79.6,27.5 79.5,27.3 79,27.3 L72.7,27.3 C72.3,27.3 72.1,27.4 72.1,27.9 L72.1,30.3 C72.1,30.8 72,31.1 71.4,31.1 C70.6,31.1 69.9,31.1 69.1,31.1 C68.5,31.1 68.4,30.9 68.4,30.4 L68.4,24.4 C68.4,23.8 68.2,23.6 67.6,23.6 L57.9,23.6 C57.3,23.6 57.1,23.5 57.1,22.9 L57.1,16.9 C57.1,16.3 56.9,16.1 56.3,16.1 L53.4,16.1 L53.4,13 C53.4,12.6 53.3,12.4 52.8,12.4 L42.8,12.4 C42.4,12.4 42.3,12.5 42.3,13 L42.3,19.3 C42.3,19.7 42.5,19.9 42.9,19.9 L49.2,19.9 C49.7,19.9 49.8,19.8 49.8,19.3 L49.8,17 C49.8,16.2 49.8,16.1 50.6,16.1 L53.6,16.1 C53.6,16.4 53.5,16.6 53.5,16.9 L53.5,27.3 L46.5,27.3 C46.1,27.3 46,27.1 46,26.8 L46,24 C46,23.6 45.9,23.4 45.5,23.4 L42.8,23.4 C42.4,23.4 42.2,23.5 42.2,23.9 L42.2,37.8 C42.2,38.2 42.4,38.3 42.8,38.3 L45.4,38.3 C45.8,38.3 45.9,38.1 45.9,37.7 L45.9,35.1 C45.9,34.6 46.1,34.5 46.5,34.5 L49.6,34.5 L49.6,41.3 C49.6,41.6 49.6,41.9 50,41.9 C51.2,42.2 52.4,42.2 53.5,42.2 L53.5,42.2 Z M60.9,143.2 L57.7,143.2 C57.3,143.2 57.2,143 57.2,142.6 L57.2,140 C57.2,139.5 57.1,139.4 56.6,139.4 L50.3,139.4 C49.8,139.4 49.7,139.6 49.7,140 L49.7,142.5 C49.7,143 49.5,143.1 49.1,143.1 L46.5,143.1 C46.1,143.1 45.9,143.2 46,143.7 L46,150.1 C46,150.5 46.1,150.6 46.5,150.6 L53,150.6 C53.4,150.6 53.5,150.5 53.5,150.1 L53.5,147.8 C53.5,147 53.5,146.9 54.4,146.9 L60.4,146.9 C60.7,146.9 61,146.9 61,146.5 C60.9,145.3 60.9,144.2 60.9,143.2 L64.3,143.1 C64.7,143.1 64.7,142.9 64.7,142.6 L64.7,140 C64.7,139.6 64.5,139.4 64.1,139.4 L61.6,139.4 C61.1,139.4 60.9,139.6 60.9,140.1 L60.9,143.2 Z M12.4,25.4 L12.4,37.7 C12.4,38.3 12.5,38.5 13.2,38.5 L37.9,38.5 C38.5,38.5 38.6,38.3 38.6,37.8 L38.6,13.1 C38.6,12.5 38.4,12.4 37.8,12.4 L13.1,12.4 C12.5,12.4 12.3,12.6 12.3,13.2 C12.4,17.2 12.4,21.3 12.4,25.4 L12.4,25.4 Z M137.6,12.4 L125.4,12.4 C124.5,12.4 124.5,12.4 124.5,13.3 L124.5,37.7 C124.5,38.6 124.5,38.6 125.3,38.6 L149.7,38.6 C150.6,38.6 150.6,38.6 150.6,37.7 L150.6,13.2 C150.6,12.6 150.5,12.4 149.8,12.4 C145.8,12.4 141.7,12.4 137.6,12.4 Z M25.4,150.6 L37.7,150.6 C38.5,150.6 38.5,150.6 38.5,149.8 L38.5,125.3 C38.5,124.4 38.5,124.4 37.7,124.4 L13.1,124.4 C12.5,124.4 12.3,124.5 12.3,125.2 L12.3,149.7 C12.3,150.6 12.3,150.6 13.2,150.6 L25.4,150.6 Z M146.9,150.6 L150.1,150.6 C150.5,150.6 150.7,150.5 150.7,150 L150.7,147.4 C150.7,147 150.5,146.8 150.1,146.8 L143.8,146.8 C143.4,146.8 143.3,147 143.3,147.4 L143.3,150 C143.3,150.4 143.5,150.6 143.9,150.6 L146.9,150.6 Z M102.1,19.8 L105.2,19.8 C105.6,19.8 105.8,19.7 105.8,19.3 L105.8,16.6 C105.8,16.2 105.7,16.1 105.3,16.1 L98.9,16.1 C98.5,16.1 98.4,16.3 98.4,16.6 L98.4,19.2 C98.4,19.6 98.6,19.8 99,19.8 L102.1,19.8 Z M46,120.8 L42.8,120.8 C42.4,120.8 42.3,120.9 42.3,121.3 L42.3,124 C42.3,124.4 42.5,124.6 42.9,124.6 L49.3,124.6 C49.7,124.6 49.8,124.4 49.8,124 L49.8,121.4 C49.8,121 49.6,120.8 49.2,120.8 C48.1,120.7 47,120.7 46,120.8 L46,120.8 Z M47.9,132 L49.3,132 C49.8,132 49.8,131.9 49.8,131.5 L49.8,128.7 C49.8,128.4 49.7,128.2 49.3,128.2 L46.5,128.2 C46.1,128.2 46,128.4 46,128.7 C46,129 46,129.6 46,130.1 C46,132 46,132 47.9,132 Z M21.8,64.7 L20.4,64.7 C19.9,64.7 19.8,64.8 19.9,65.3 L19.9,68 C19.9,68.4 20.1,68.5 20.4,68.5 L23,68.5 C23.4,68.5 23.5,68.4 23.5,68 C23.5,67.6 23.5,67 23.5,66.6 C23.6,64.7 23.6,64.7 21.8,64.7 L21.8,64.7 Z M38.5,44.1 L38.5,42.7 C38.5,42.2 38.3,42.2 38,42.2 L35.3,42.2 C34.9,42.2 34.8,42.4 34.8,42.7 L34.8,45.4 C34.8,45.8 35,45.9 35.3,45.9 L38,45.9 C38.4,45.9 38.5,45.7 38.5,45.3 C38.5,44.9 38.5,44.5 38.5,44.1 Z M42.2,137.6 L42.2,138.9 C42.2,139.3 42.3,139.4 42.7,139.4 L45.5,139.4 C45.8,139.4 46,139.3 46,138.9 L46,136.1 C46,135.8 45.9,135.6 45.5,135.6 L42.7,135.6 C42.3,135.6 42.2,135.8 42.2,136.1 C42.2,136.4 42.2,137.2 42.2,137.6 Z M25.5,42.3 L24.2,42.3 C23.8,42.3 23.6,42.4 23.6,42.9 L23.6,45.5 C23.6,45.9 23.7,46.1 24.2,46.1 L26.8,46.1 C27.2,46.1 27.4,46 27.4,45.5 L27.4,42.9 C27.4,42.4 27.2,42.3 26.8,42.3 C26.4,42.3 25.9,42.3 25.5,42.3 Z M27.3,74 C27.3,72.1 27.3,72.1 25.4,72.1 C23.5,72.1 23.5,72.1 23.5,74 C23.5,75.9 23.5,75.9 25.4,75.9 C27.3,75.9 27.3,75.9 27.3,74 Z" id="形状" fill="#FFFFFF" fill-rule="nonzero"></path>
            <path d="M143.1,132 L146.2,132 C146.8,132 146.9,132.2 146.9,132.7 L146.9,135 C146.9,135.6 147.1,135.7 147.6,135.7 L150,135.7 C150.5,135.7 150.6,135.9 150.6,136.4 L150.6,142.6 C150.6,143 150.5,143.2 150,143.2 L147.4,143.2 C147,143.2 146.8,143 146.8,142.6 L146.8,140 C146.8,139.6 146.7,139.4 146.2,139.4 L143.7,139.4 C143.2,139.4 143.1,139.5 143.1,140 L143.1,142.6 C143.1,143 143,143.2 142.6,143.2 L139.3,143.2 L139.3,136.2 C139.3,135.8 139,135.8 138.7,135.8 L132.4,135.8 C131.9,135.8 131.8,136 131.8,136.4 L131.8,139.5 C130.8,139.5 129.7,139.5 128.7,139.6 C128.2,139.6 128,139.4 128.1,138.9 L128.1,136.5 C128.1,136 128,135.8 127.4,135.8 L125,135.8 C124.5,135.8 124.3,136 124.4,136.5 L124.4,138.9 C124.4,139.3 124.3,139.5 123.8,139.5 L121.3,139.5 C120.8,139.5 120.7,139.3 120.7,138.9 L120.7,136.3 C120.7,135.9 120.5,135.7 120.1,135.7 L117.5,135.7 C117.1,135.7 116.9,135.8 116.9,136.3 L116.9,142.6 C116.9,143.1 117.1,143.2 117.5,143.2 L120,143.2 C120.5,143.2 120.7,143.3 120.7,143.8 L120.7,145.9 C120.7,146.9 120.7,146.9 121.6,146.9 L128.1,146.9 L128.1,150.1 C128.1,150.5 127.9,150.6 127.5,150.6 L117.4,150.6 C116.9,150.6 116.8,150.4 116.8,150 L116.8,147.7 C116.8,147.1 116.7,146.8 116,146.9 C115.3,147 114.4,146.9 113.6,146.9 C113.2,146.9 113,146.7 113,146.3 L113,136.3 C113,135.8 113.2,135.7 113.6,135.7 L116.2,135.7 C116.6,135.7 116.7,135.6 116.7,135.1 L116.7,128.7 C116.7,128.3 116.5,128.1 116.1,128.2 L112.9,128.2 L112.9,125.1 C112.9,124.6 112.7,124.5 112.3,124.5 L110,124.5 C109.6,124.5 109.4,124.3 109.4,123.9 L109.4,121.3 C109.4,120.9 109.6,120.7 110,120.7 L112.6,120.7 C113,120.7 113.2,120.6 113.2,120.2 L113.2,117.6 C113.2,117.2 113,117 112.6,117 L102,117 L102,110.1 C102,109.7 101.9,109.5 101.4,109.5 L98.8,109.5 C98.4,109.5 98.2,109.7 98.2,110.1 L98.2,112.7 C98.2,113.1 98.1,113.2 97.7,113.2 L95,113.2 C94.5,113.2 94.4,113 94.4,112.6 L94.4,110.2 C94.4,109.7 94.3,109.5 93.8,109.5 L91.3,109.5 C90.9,109.5 90.7,109.6 90.7,110 L90.7,112.6 C90.7,113 90.5,113.2 90.1,113.2 L87.5,113.2 C87.2,113.2 87,113.3 87,113.7 L87,117 C86,117 85,116.9 84,117 C83.4,117 83.2,116.9 83.2,116.2 C83.2,115.5 83.2,114.7 83.2,113.9 C83.2,113.4 83.1,113.2 82.6,113.2 L79.5,113.2 L79.5,106.2 C79.5,105.8 79.3,105.7 78.9,105.7 L76.3,105.7 C75.8,105.7 75.7,105.9 75.7,106.3 L75.7,108.7 C75.7,109.2 75.5,109.4 75,109.4 L68.8,109.4 C68.3,109.4 68.2,109.5 68.2,110 L68.2,112.4 C68.2,112.9 68.3,113.1 68.9,113.1 L79.4,113.1 L79.4,116.3 C79.4,116.7 79.3,116.9 78.9,116.9 L76.5,116.9 C75.9,116.9 75.7,117 75.7,117.6 L75.7,120 C75.7,120.5 75.5,120.7 75,120.7 L72.4,120.7 C72,120.7 71.9,120.8 71.9,121.2 L71.9,124.4 L68.6,124.4 C68.3,124.4 68.1,124.2 68.1,123.9 L68.1,121.2 C68.1,120.8 68.3,120.6 68.7,120.7 L71.3,120.7 C71.7,120.7 71.9,120.5 71.8,120.1 L71.8,117.7 C71.8,117.1 71.6,116.9 71.1,116.9 L65.1,116.9 C64.4,116.9 64.3,116.7 64.3,116.1 L64.3,113.7 C64.3,113.3 64.1,113.1 63.8,113.1 L61.2,113.1 C60.8,113.1 60.7,113.2 60.7,113.7 L60.7,120 C60.7,120.5 60.9,120.6 61.4,120.6 L63.9,120.6 C64.3,120.6 64.5,120.7 64.5,121.2 L64.5,127.5 C64.5,127.8 64.4,128.1 64,128.1 L60.7,128.1 L60.7,125 C60.7,124.6 60.5,124.5 60.1,124.5 L57.5,124.5 C57,124.5 56.9,124.3 56.9,123.9 L56.9,121.3 C56.9,120.9 56.8,120.7 56.4,120.7 L53.8,120.7 C53.3,120.7 53.1,120.6 53.2,120.1 C53.2,119.1 53.2,118 53.2,117 L56.3,117 C56.7,117 56.9,116.8 56.9,116.4 L56.9,110.1 C56.9,109.7 56.7,109.5 56.3,109.5 L53.8,109.5 C53.3,109.5 53.2,109.4 53.2,108.9 L53.2,102.6 C53.2,102.1 53.4,102 53.8,102 L56.4,102 C56.8,102 56.9,101.9 56.9,101.5 L56.9,99 C56.9,98.5 56.7,98.3 56.2,98.3 L54,98.3 C53.2,98.3 53.2,98.2 53.2,97.5 L53.2,91.5 C53.2,90.9 53.4,90.7 54,90.7 L60.1,90.7 C60.6,90.7 60.8,90.5 60.8,90 L60.8,87.6 C60.8,87.2 60.7,86.9 60.2,86.9 L57.7,86.9 C57.2,86.9 57,86.7 57,86.2 L57,80.1 C57,79.6 56.8,79.4 56.3,79.5 L53.2,79.5 L53.2,75.8 L56.9,75.8 C56.9,76.9 57,78 57,79 C57,79.4 57.1,79.6 57.5,79.6 L60.7,79.6 L60.7,82 C60.7,83.4 60.7,83.4 62.1,83.4 C62.7,83.4 62.9,83.6 62.9,84.2 L62.9,93.7 C62.9,95.1 62.2,99.7 63.8,99.8 C65.8,99.9 72,99.8 74,99.8 C75.7,99.8 75.7,99.8 75.7,101.4 L75.7,101.5 C75.6,101.9 75.8,102 76.2,102 C76.6,102 77.2,102 77.8,102 C79.4,102 79.4,102 79.4,100.5 L79.4,100.4 C79.4,100 79.6,99.8 80,99.8 L82.6,99.8 C83.1,99.8 83.2,100 83.2,100.5 C83.2,101 83.2,101.6 83.2,102.1 C82.1,102.1 81.1,102.1 80,102 C79.5,102 79.4,102.2 79.4,102.6 L79.4,105.2 C79.4,105.7 79.6,105.8 80,105.8 L82.5,105.8 C83,105.8 83.2,105.7 83.2,105.2 L83.2,102.1 L86.4,102 C86.8,102 86.9,102.2 86.9,102.5 L86.9,105.1 C86.9,105.6 86.7,105.7 86.3,105.7 L83.8,105.7 C83.3,105.7 83.2,105.9 83.2,106.3 L83.2,108.7 C83.2,109.2 83.4,109.4 83.9,109.4 L89.9,109.4 C90.5,109.4 90.7,109.2 90.7,108.6 L90.7,102.5 C90.7,102 90.9,101.8 91.4,101.8 C91.9,101.8 92.4,101.8 92.8,101.8 C94.4,101.8 94.4,101.8 94.4,100.2 C94.4,99.7 94.6,99.6 95.1,99.5 C95.7,99.4 96.2,99.2 96.7,99 C97.2,98.7 97.7,98.4 98.2,98 C98.2,98.3 98.3,98.5 98.3,98.7 L98.3,101.1 C98.3,101.5 98.5,101.7 98.9,101.7 L105.2,101.7 C105.6,101.7 105.8,101.6 105.8,101.2 L105.8,98.6 C105.8,98.2 105.6,98 105.2,98 L102.6,98 C102.2,98 102,97.9 102,97.5 L102,91.1 C102,90.7 102.2,90.5 102.6,90.5 L105.2,90.5 C105.7,90.5 105.8,90.7 105.8,91.1 L105.8,93.5 C105.8,94.1 105.9,94.3 106.5,94.3 L112.5,94.3 C113.1,94.3 113.3,94.5 113.3,95.1 L113.3,101.9 L106.2,101.9 C106.1,101.9 105.8,102.2 105.8,102.4 L105.8,112.6 C105.8,113 105.9,113.2 106.4,113.2 L108.8,113.2 C109.4,113.2 109.6,113 109.6,112.4 L109.6,106.3 C109.6,105.8 109.7,105.6 110.2,105.6 L112.5,105.6 C113.1,105.6 113.3,105.5 113.3,104.8 L113.3,101.8 L117.1,101.8 L117.1,105.1 C117.1,105.4 117.2,105.5 117.5,105.5 L120.3,105.5 C120.5,105.4 120.7,105.3 120.7,105.1 C120.7,104.1 120.7,103.2 120.7,102.2 C120.7,102 120.5,101.9 120.3,101.8 L117,101.8 L117,94.8 C117,94.4 117.2,94.2 117.6,94.2 C118.7,94.2 119.8,94.2 120.8,94.1 C120.8,94.2 120.7,94.3 120.7,94.3 L120.7,101.2 C120.7,101.3 121,101.6 121.2,101.6 L123.8,101.6 C124.3,101.6 124.4,101.4 124.4,101 L124.4,94.8 C124.4,94.3 124.2,94.1 123.7,94.1 L120.7,94.1 C120.7,93.1 120.6,92.1 120.6,91.1 C120.6,90.5 120.4,90.4 119.9,90.4 L110.4,90.4 C109.4,90.4 109.4,90.4 109.4,89.3 L109.4,82.9 L112.6,82.9 C113,82.9 113.2,83.1 113.2,83.5 L113.2,85.9 C113.2,86.4 113.3,86.6 113.9,86.6 L119.9,86.6 C120.7,86.6 120.7,86.6 120.7,87.4 L120.7,89.7 C120.7,90.1 120.9,90.3 121.3,90.3 L123.9,90.3 C124.3,90.3 124.5,90.1 124.5,89.7 L124.5,79.7 C124.5,79.3 124.3,79.1 123.9,79.1 L121.3,79.1 C120.9,79.1 120.7,79.3 120.7,79.7 L120.7,82.3 C120.7,82.7 120.6,82.8 120.2,82.8 L117.5,82.8 C117.1,82.8 117,82.7 117,82.3 L117,75.3 L120.2,75.3 C120.6,75.3 120.7,75.1 120.7,74.7 L120.7,72.3 C120.7,71.7 120.9,71.6 121.4,71.6 L127.3,71.6 C128.2,71.6 128.2,71.6 128.2,72.4 L128.2,82 C128.2,82.6 128.4,82.8 129,82.8 L135.8,82.8 L135.8,90 C135.8,90.6 135.6,90.8 135,90.8 L128.9,90.8 C128.4,90.8 128.3,90.9 128.3,91.4 L128.3,94 C128.3,94.4 128.5,94.6 128.9,94.6 L138.9,94.6 C139.3,94.6 139.5,94.4 139.5,94 L139.5,91.5 C139.5,91 139.6,90.8 140.1,90.8 L142.5,90.8 C143,90.8 143.2,90.7 143.2,90.2 L143.2,87.1 L146.9,87.1 L146.9,93.6 C146.9,94.5 146.9,94.5 147.8,94.5 L150,94.5 C150.5,94.5 150.7,94.7 150.7,95.2 L150.7,116.2 C150.7,116.8 150.5,117 149.9,116.9 L146.9,116.9 L146.9,106.3 C146.9,105.8 146.8,105.6 146.3,105.6 L143.7,105.6 C143.3,105.6 143.1,105.7 143.1,106.1 L143.1,108.7 C143.1,109.1 143,109.3 142.6,109.3 L139.3,109.3 C139.3,108.2 139.4,107.1 139.3,106 C139.3,105.9 139,105.6 138.8,105.6 L132.4,105.6 C132,105.6 131.9,105.8 131.9,106.1 L131.9,109.3 L125,109.3 C124.4,109.3 124.2,109.5 124.3,110.1 L124.3,112.5 C124.3,112.9 124.5,113.1 124.9,113.1 L131.8,113.1 L131.8,116.1 C131.8,116.7 131.9,116.9 132.5,116.9 L146.7,116.9 L146.7,120 C146.7,120.5 146.9,120.7 147.4,120.7 L150,120.7 C150.4,120.7 150.6,120.9 150.6,121.3 L150.6,127.5 C150.6,128 150.4,128.2 149.9,128.2 L143.8,128.2 C143.3,128.2 143.1,128.3 143.1,128.9 L143.1,132 L139.3,131.9 C139.3,131.6 139.4,131.4 139.4,131.1 L139.4,125.2 C139.4,124.4 139.4,124.4 140.2,124.4 L142.5,124.4 C143,124.4 143.2,124.2 143.1,123.7 L143.1,121.3 C143.1,120.8 142.9,120.6 142.4,120.6 L136.2,120.6 C135.7,120.6 135.6,120.8 135.6,121.2 L135.6,131.2 C135.6,131.7 135.8,131.8 136.3,131.8 L139.3,131.8 L139.3,135 C139.3,135.4 139.4,135.5 139.8,135.5 L142.6,135.5 C143,135.5 143.1,135.3 143.1,135 C143.1,134.1 143.1,133 143.1,132 L143.1,132 Z M126.4,132 L131.2,132 C131.8,132 132,131.8 132,131.3 L132,121.5 C132,120.9 131.8,120.8 131.3,120.8 L121.5,120.8 C121,120.8 120.8,121 120.8,121.5 L120.8,131.4 C120.8,131.9 121,132.1 121.5,132.1 C123.1,132 124.8,132 126.4,132 L126.4,132 Z M141.3,98.4 L136.3,98.4 C135.8,98.4 135.7,98.6 135.7,99 L135.7,101.5 C135.7,102 135.8,102.1 136.3,102.1 L138.8,102.1 C139.3,102.1 139.4,102.3 139.4,102.7 L139.4,105.3 C139.4,105.6 139.5,105.8 139.9,105.8 L142.7,105.8 C143.1,105.8 143.2,105.6 143.2,105.3 L143.2,102.7 C143.2,102.3 143.3,102.1 143.8,102.1 L146.4,102.1 C146.8,102.1 147,102 147,101.5 L147,98.9 C147,98.4 146.8,98.3 146.4,98.3 C144.6,98.3 143,98.3 141.3,98.4 Z M113.3,109.6 L113.3,112.8 C113.3,113.2 113.4,113.3 113.8,113.3 L120.3,113.3 C120.7,113.3 120.8,113.1 120.8,112.8 L120.8,110.1 C120.8,109.7 120.7,109.5 120.2,109.5 L117.7,109.5 C117.2,109.5 117,109.4 117,108.9 L117,106.4 C117,106 116.9,105.8 116.4,105.8 L113.8,105.8 C113.4,105.8 113.2,105.9 113.2,106.3 C113.3,107.4 113.3,108.5 113.3,109.6 L113.3,109.6 Z M130,102.1 L131.4,102.1 C131.8,102.1 132,101.9 132,101.5 L132,98.9 C132,98.5 131.9,98.4 131.5,98.4 L130.2,98.4 C129.6,98.4 128.8,98.2 128.5,98.6 C128.2,99 128.3,99.8 128.3,100.4 C128.2,102.1 128.2,102.1 130,102.1 L130,102.1 Z M66.5,105.8 L67.9,105.8 C68.2,105.8 68.4,105.7 68.4,105.3 L68.4,102.5 C68.4,102.3 68.1,102.1 68,102.1 C67.1,102.1 66.1,102.1 65.2,102.1 C65,102.1 64.8,102.4 64.8,102.5 L64.8,105.3 C64.9,105.5 65,105.7 65.2,105.7 C65.6,105.8 66.1,105.8 66.5,105.8 Z M59.1,105.8 L60.4,105.8 C60.7,105.8 60.9,105.6 60.9,105.3 L60.9,102.5 C60.9,102.2 60.7,102 60.4,102 L57.7,102 C57.4,102 57.2,102.1 57.2,102.5 L57.2,105.3 C57.2,105.7 57.4,105.8 57.7,105.8 L59.1,105.8 Z" id="形状" fill="#000000" fill-rule="nonzero"></path>
            <path d="M53.5,27.3 L53.5,16.9 C53.5,16.6 53.5,16.4 53.6,16.1 L56.5,16.1 C57.1,16.1 57.3,16.2 57.3,16.9 L57.3,22.9 C57.3,23.5 57.5,23.6 58.1,23.6 L67.8,23.6 C68.4,23.6 68.6,23.8 68.6,24.4 L68.6,30.4 C68.6,30.9 68.8,31.2 69.3,31.1 L71.6,31.1 C72.2,31.1 72.4,30.9 72.3,30.3 L72.3,28 C72.3,27.5 72.5,27.4 72.9,27.4 L79.2,27.4 C79.6,27.4 79.8,27.6 79.8,28 L79.8,30.6 C79.8,31 80,31.2 80.4,31.2 L83,31.2 C83.4,31.2 83.6,31.1 83.6,30.6 L83.6,28 C83.6,27.6 83.8,27.4 84.2,27.4 L86.8,27.4 C87.2,27.4 87.4,27.3 87.4,26.8 L87.4,24.2 C87.4,23.8 87.6,23.6 88,23.6 L94.3,23.6 C94.7,23.6 94.9,23.8 94.9,24.2 L94.9,26.7 C94.9,27.2 95.1,27.4 95.6,27.4 L105.3,27.4 C106.2,27.4 106.2,27.4 106.2,28.3 L106.2,30.6 C106.2,31 106.3,31.2 106.7,31.2 L113.1,31.2 C113.5,31.2 113.6,31 113.6,30.6 L113.6,24.3 C113.6,23.9 113.4,23.7 113,23.7 L110.4,23.7 C110,23.7 109.8,23.5 109.8,23.1 L109.8,20.5 C109.8,20.1 110,19.9 110.4,19.9 L113,19.9 C113.4,19.9 113.6,19.8 113.6,19.3 L113.6,16.7 C113.6,16.2 113.4,16.1 113,16.1 L110.5,16.1 C110.1,16.1 109.9,16 109.9,15.5 L109.9,13 C109.9,12.6 110.1,12.4 110.5,12.4 L116.8,12.4 C117.3,12.4 117.4,12.6 117.4,13 L117.4,19.1 C117.4,19.7 117.5,19.9 118.1,19.9 L120.5,19.9 C120.9,19.9 121.1,20 121.1,20.5 L121.1,38 C121.1,38.4 120.9,38.6 120.5,38.6 L117.9,38.6 C117.5,38.6 117.3,38.4 117.3,38 L117.3,35.4 C117.3,35 117.2,34.8 116.7,34.8 L114,34.8 C113.5,34.8 113.4,35 113.4,35.4 L113.4,38 C113.4,38.4 113.3,38.6 112.8,38.6 L110.2,38.6 C109.8,38.6 109.6,38.4 109.6,38 L109.6,35.4 C109.6,34.9 109.4,34.8 109,34.8 L106.6,34.8 C106,34.8 105.8,35 105.8,35.5 L105.8,45.2 C105.8,45.4 105.8,45.7 105.7,45.9 L102.5,45.9 C102.1,45.9 102,45.7 102,45.4 L102,43 C102,42.5 101.9,42.3 101.3,42.3 L98.3,42.3 L98.3,38.6 C99.3,38.6 100.3,38.5 101.2,38.6 C101.8,38.6 102,38.5 102,37.8 C102,37 102,36.2 102,35.4 C102,34.9 102.2,34.8 102.6,34.8 L105.2,34.8 C105.6,34.8 105.8,34.7 105.8,34.3 L105.8,31.6 C105.8,31.2 105.6,31.1 105.3,31.1 L98.8,31.1 C98.4,31.1 98.3,31.3 98.3,31.6 L98.3,38.6 C97.3,38.6 96.3,38.5 95.3,38.5 C94.7,38.5 94.5,38.3 94.5,37.7 L94.5,31.6 C94.5,31.3 94.5,31 94,31 L87.5,31 C87.3,31.1 87.1,31.2 87.1,31.4 L87.1,34.7 L84,34.7 C83.6,34.7 83.4,34.9 83.4,35.3 L83.4,37.8 C83.4,38.3 83.5,38.5 84.1,38.5 L87.2,38.5 L87.2,45.5 C87.2,45.9 87.5,45.9 87.8,45.9 L94.1,45.9 C94.5,45.9 94.7,45.7 94.7,45.3 L94.7,42.8 C94.7,42.3 94.9,42.1 95.4,42.1 C96.4,42.1 97.4,42.1 98.5,42 L98.5,48.6 C98.5,49.6 98.5,49.6 97.6,49.6 L91.7,49.6 C91.2,49.6 91,49.8 91,50.3 L91,52.8 C91,53.2 90.8,53.4 90.4,53.4 L87.7,53.4 C87.3,53.4 87.1,53.2 87.1,52.8 L87.1,50.2 C87.1,49.8 86.9,49.6 86.5,49.6 L84,49.6 C83.6,49.6 83.4,49.4 83.4,49 L83.4,46.4 C83.4,46 83.3,45.8 82.8,45.8 L80.5,45.8 C79.7,45.8 79.7,45.8 79.7,46.6 L79.7,52.5 C79.7,53.1 79.5,53.3 78.9,53.3 C78.1,53.3 77.4,53.3 76.6,53.3 C76,53.3 75.9,53.1 75.9,52.6 L75.9,46.4 C75.9,45.9 75.7,45.8 75.3,45.8 L72.2,45.8 C72.2,44.8 72.2,43.7 72.2,42.7 C72.2,42.2 72,42.1 71.6,42.1 L68.5,42.1 L68.5,38.5 L71.4,38.5 C72.2,38.5 72.2,38.5 72.2,37.7 C72.2,36.9 72.2,35.8 72.2,34.8 L75.8,34.8 C75.8,35.8 75.9,36.9 75.8,37.9 C75.8,38.3 76,38.5 76.4,38.5 L79,38.5 C79.4,38.5 79.5,38.4 79.5,38 L79.5,35.2 C79.5,34.9 79.3,34.7 79,34.7 L75.7,34.7 C75.7,33.6 75.8,32.5 75.7,31.3 C75.6,31.1 75.5,31 75.3,30.9 L72.5,30.9 C72.4,30.9 72.1,31.1 72.1,31.2 C72.1,32.3 72.1,33.5 72.2,34.6 L68.8,34.6 C68.6,34.6 68.4,34.8 68.4,35 L68.4,38.4 L64.6,38.4 L64.6,28 C64.6,27.5 64.4,27.4 63.9,27.4 L54.3,27.4 C54,27.4 53.7,27.4 53.4,27.3 L53.5,27.3 Z" id="路径" fill="#000000" fill-rule="nonzero"></path>
            <path d="M38.6,117 C38.6,118 38.5,119 38.6,120.1 C38.6,120.6 38.4,120.8 37.9,120.8 L28,120.8 C27.5,120.8 27.3,120.6 27.3,120.1 L27.3,117.7 C27.3,117.3 27.2,117.1 26.7,117.1 L20.4,117.1 C19.9,117.1 19.8,117.3 19.8,117.7 L19.8,120.2 C19.8,120.6 19.7,120.8 19.2,120.8 L13,120.8 C12.6,120.8 12.4,120.7 12.4,120.2 L12.4,117.6 C12.4,117.2 12.6,117 13,117 L15.6,117 C16,117 16.2,116.8 16.2,116.4 L16.2,113.2 L19.4,113.2 C19.8,113.2 20,113.1 20,112.6 L20,106.2 C20,105.8 19.8,105.7 19.4,105.7 L16.7,105.7 C16.3,105.7 16.1,105.5 16.2,105.1 L16.2,102.5 C16.2,102.1 16.3,101.9 16.7,101.9 L19.3,101.9 C19.8,101.9 19.9,102.1 19.9,102.5 L19.9,104.9 C19.9,105.4 20,105.6 20.6,105.6 L23,105.6 C23.6,105.6 23.7,105.4 23.7,104.9 L23.7,95.3 C23.7,94.5 23.7,94.5 24.5,94.5 L26.7,94.5 C27.3,94.5 27.4,94.7 27.4,95.2 L27.4,97.6 C27.4,98 27.6,98.2 28,98.2 L30.5,98.2 C31,98.2 31.2,98 31.2,97.5 L31.2,90.6 L35,90.6 L35,93.9 C35,94.3 35.2,94.4 35.5,94.4 L38.1,94.4 C38.5,94.4 38.7,94.2 38.7,93.8 L38.7,91.4 C38.7,90.8 38.5,90.7 38,90.7 C37,90.7 36,90.7 35,90.6 L35,87.7 C35,87 35.2,86.9 35.8,86.9 L46.2,86.9 L46.2,89.8 C46.2,90.4 46.3,90.6 46.9,90.6 L49.2,90.6 C49.8,90.6 49.9,90.8 49.9,91.3 L49.9,93.6 C49.9,94.2 49.7,94.3 49.2,94.3 L43,94.3 C42.5,94.3 42.4,94.5 42.4,94.9 L42.4,97.4 C42.4,97.9 42.6,98.1 43.1,98 L45.5,98 C46.1,98 46.2,98.2 46.2,98.7 L46.2,104.8 C46.2,105.3 46.3,105.5 46.9,105.5 L49.3,105.5 C49.8,105.5 50,105.7 50,106.2 L50,113 L46.9,113 C46.4,113 46.3,113.1 46.3,113.6 L46.3,116 C46.3,116.6 46.1,116.8 45.6,116.8 L38.8,116.8 L38.8,113 L41.9,113 C42.4,113 42.6,112.8 42.5,112.3 L42.5,109.9 C42.5,109.4 42.3,109.2 41.8,109.2 L38.8,109.2 C38.8,108.2 38.7,107.2 38.8,106.2 C38.8,105.7 38.6,105.5 38.1,105.6 L35.6,105.6 C35.2,105.6 35,105.5 35,105 L35,101.9 L38.2,101.9 C38.6,101.9 38.7,101.8 38.7,101.4 L38.7,98.6 C38.7,98.3 38.6,98.1 38.2,98.1 L35.4,98.1 C35.1,98.1 34.9,98.2 34.9,98.6 L34.9,101.9 L27.8,101.8 C27.4,101.8 27.4,102 27.4,102.3 L27.4,104.9 C27.4,105.4 27.6,105.5 28,105.5 L30.5,105.5 C31.1,105.5 31.2,105.7 31.2,106.2 L31.2,108.4 C31.2,109.1 31.3,109.3 32,109.2 L35.9,109.2 L38.8,109.1 L38.8,112.9 L31.9,112.9 C31.5,112.9 31.3,113.1 31.3,113.5 L31.3,115.9 C31.3,116.5 31.4,116.7 32.1,116.7 C34,117 36.3,117 38.6,117 L38.6,117 Z M27.3,111.4 L27.3,110.1 C27.3,109.7 27.1,109.5 26.7,109.5 L24.3,109.5 C23.8,109.5 23.6,109.6 23.6,110.1 L23.6,112.6 C23.6,113.1 23.8,113.2 24.2,113.2 L26.6,113.2 C27.1,113.2 27.3,113 27.3,112.5 C27.3,112 27.3,111.8 27.3,111.4 Z M44.1,105.8 L42.7,105.8 C42.4,105.8 42.2,105.9 42.2,106.2 L42.2,109 C42.2,109.4 42.3,109.5 42.7,109.5 L45.5,109.5 C45.8,109.5 46,109.4 46,109 L46,106.2 C46,105.8 45.8,105.7 45.5,105.7 C45.2,105.7 44.6,105.8 44.1,105.8 Z M42.3,104 L42.2,102.7 C42.2,102.3 42.1,102.1 41.7,102.1 L39,102.1 C38.6,102.1 38.5,102.3 38.5,102.6 L38.5,105.3 C38.5,105.7 38.7,105.9 39.1,105.8 C39.5,105.7 40,105.8 40.4,105.8 C40.8,105.8 41.8,106 42.1,105.7 C42.4,105.4 42.2,104.6 42.3,104 L42.3,104 Z" id="形状" fill="#000000" fill-rule="nonzero"></path>
            <path d="M72.2,147 C72.2,146.8 72.1,146.5 72.1,146.3 L72.1,140.2 C72.1,139.6 72.3,139.5 72.8,139.5 L75.2,139.5 C75.6,139.5 75.8,139.3 75.8,138.9 L75.8,136.5 C75.8,135.9 75.6,135.8 75.1,135.8 L69.1,135.8 C68.5,135.8 68.3,135.6 68.3,135 L68.3,129 C68.3,128.5 68.5,128.3 69,128.3 L72.1,128.3 L72.1,131.4 C72.1,131.9 72.3,132 72.8,132 L75.2,132 C75.6,132 75.8,132.1 75.8,132.6 L75.8,135.2 C75.8,135.6 76,135.8 76.4,135.8 L82.6,135.8 C83.1,135.8 83.3,135.6 83.2,135.1 L83.2,132.6 C83.2,132.2 83.3,132 83.8,132 L86.4,132 C86.8,132 87,132.2 87,132.6 L87,135.2 C87,135.6 87.2,135.8 87.6,135.8 L90.2,135.8 C90.4,135.8 90.7,136 90.7,136.1 L90.7,139.4 C90.5,139.4 90.3,139.5 90,139.5 L87.5,139.5 C87.2,139.5 87,139.6 87,139.9 L87,142.8 C87,143 87.2,143.2 87.4,143.2 L90.3,143.2 C90.5,143.2 90.7,143 90.7,142.9 C90.7,141.7 90.7,140.6 90.6,139.4 C90.9,139.4 91.2,139.5 91.5,139.5 L97.5,139.5 C97.8,139.5 98,139.5 98.3,139.4 L98.3,142.7 C98.3,143.2 98.5,143.3 98.9,143.3 L105.2,143.3 C105.6,143.3 105.8,143.2 105.8,142.7 L105.8,136.4 C105.8,136 105.6,135.8 105.2,135.8 L102.7,135.8 C102.2,135.8 102,136 102.1,136.5 L102.1,139 C102.1,139.3 102.1,139.6 101.7,139.6 L98.4,139.5 L98.4,136.4 C98.4,135.9 98.6,135.8 99,135.8 L101.4,135.8 C102,135.8 102.2,135.7 102.2,135.1 L102.2,129 C102.2,128.6 102.3,128.4 102.8,128.4 L105.4,128.4 C105.8,128.4 105.9,128.5 105.9,128.9 L105.9,131.5 C105.9,131.9 106.1,132.1 106.5,132.1 L109.6,132.1 L109.6,146.3 C109.6,146.9 109.4,147.1 108.8,147.1 L106.4,147.1 C106,147.1 105.8,147.3 105.8,147.7 L105.8,150.3 C105.8,150.7 105.6,150.9 105.2,150.9 L102.6,150.9 C102.2,150.9 102,150.7 102,150.3 L102,147.7 C102,147.3 101.8,147.1 101.4,147.1 L95.1,147.1 C94.7,147.1 94.5,147.2 94.5,147.7 L94.5,150.3 C94.5,150.7 94.4,150.9 93.9,150.9 L91.3,150.9 C90.8,150.9 90.7,150.7 90.7,150.3 L90.7,147.7 C90.7,147.3 90.6,147.1 90.2,147.1 L87.6,147.1 C87.1,147.1 87,147.2 87,147.7 L87,150.3 C87,150.7 86.9,150.9 86.4,150.9 L84,150.9 C83.5,150.9 83.4,150.7 83.4,150.3 L83.4,147.8 C83.4,147.4 83.3,147.2 82.8,147.2 L80.3,147.2 C79.8,147.2 79.6,147.4 79.7,147.9 L79.7,150.3 C79.7,150.7 79.6,150.9 79.1,150.9 L76.5,150.9 C76.1,150.9 75.9,150.7 75.9,150.3 L75.9,147.8 C75.9,147.4 75.7,147.2 75.3,147.2 L72.2,147 Z M79.6,143.2 L82.8,143.2 C83.2,143.2 83.4,143.1 83.4,142.6 L83.4,140 C83.4,139.6 83.2,139.4 82.8,139.4 L76.5,139.4 C76.1,139.4 75.9,139.5 75.9,139.9 L75.9,142.5 C75.9,142.9 76.1,143.1 76.5,143.1 L79.6,143.2 Z" id="形状" fill="#000000" fill-rule="nonzero"></path>
            <path d="M46,68.4 L28.2,68.4 C27.3,68.4 27.3,68.4 27.3,67.5 L27.3,65.3 C27.3,64.8 27.4,64.7 27.9,64.7 L30.4,64.7 C30.9,64.7 31,64.6 31,64.1 L31,61.5 C31,61 30.8,60.9 30.4,60.9 L27.8,60.9 C27.4,60.9 27.2,60.7 27.2,60.3 L27.2,57.7 C27.2,57.3 27.3,57.2 27.7,57.2 L30.2,57.2 C30.7,57.2 30.9,57 30.9,56.5 L30.9,50.4 C30.9,49.9 31,49.7 31.6,49.7 L37.7,49.7 C38.2,49.7 38.4,49.9 38.4,50.4 C38.4,51.4 38.4,52.5 38.5,53.5 L35.1,53.4 C34.7,53.4 34.7,53.6 34.7,53.9 L34.7,56.5 C34.7,56.9 34.9,57.1 35.3,57.1 L37.8,57.1 C38.3,57.1 38.5,56.9 38.5,56.4 C38.5,55.4 38.5,54.4 38.5,53.4 L41.6,53.4 C42.1,53.4 42.2,53.2 42.2,52.8 L42.2,50.4 C42.2,49.9 42.3,49.7 42.9,49.7 L45.4,49.7 C45.9,49.7 46.1,49.5 46.1,49 L46.1,46.6 C46.1,46.1 46.3,45.9 46.8,45.9 L53.6,45.9 L53.6,60.7 L53.6,60.9 L50.5,60.9 C49.9,60.9 49.7,61.1 49.8,61.7 L49.8,64 C49.8,64.5 49.7,64.7 49.1,64.7 L46,64.7 L46,61.4 C46,61 45.8,60.9 45.5,60.9 L35.4,60.9 C34.9,60.9 34.8,61.1 34.8,61.5 L34.8,64 C34.8,64.6 35,64.7 35.5,64.7 L46,64.7 L46,68.4 Z M47.9,57.2 C48.5,57.2 49.3,57.3 49.6,57 C49.9,56.7 49.8,55.9 49.8,55.3 C49.8,53.4 49.8,53.4 47.9,53.4 C46,53.4 46,53.4 46,55.3 C46,57.2 46,57.2 47.9,57.2 L47.9,57.2 Z" id="形状" fill="#000000" fill-rule="nonzero"></path>
            <path d="M12.4,25.4 L12.4,13.1 C12.4,12.5 12.5,12.3 13.2,12.3 L37.8,12.3 C38.4,12.3 38.6,12.4 38.6,13 L38.6,37.7 C38.6,38.2 38.5,38.4 37.9,38.4 L13.1,38.4 C12.5,38.4 12.3,38.2 12.3,37.6 C12.4,33.6 12.4,29.5 12.4,25.4 Z M34.8,25.5 L34.8,16.8 C34.8,16.3 34.6,16.1 34.1,16.1 L16.8,16.1 C16.2,16.1 16.1,16.3 16.1,16.8 L16.1,34.1 C16.1,34.6 16.2,34.8 16.8,34.8 L34,34.8 C34.6,34.8 34.7,34.6 34.7,34 L34.8,25.5 Z" id="形状" fill="#000000" fill-rule="nonzero"></path>
            <path d="M137.6,12.4 L149.9,12.4 C150.5,12.4 150.7,12.6 150.7,13.2 L150.7,37.7 C150.7,38.6 150.7,38.6 149.8,38.6 L125.4,38.6 C124.6,38.6 124.6,38.6 124.6,37.7 L124.6,13.2 C124.6,12.3 124.6,12.3 125.5,12.3 L137.6,12.3 L137.6,12.4 Z M128.2,25.4 L128.2,34.1 C128.2,34.6 128.3,34.8 128.9,34.8 L146.2,34.8 C146.8,34.8 146.9,34.6 146.9,34.1 L146.9,16.9 C146.9,16.3 146.7,16.1 146.1,16.1 L129,16.1 C128.4,16.1 128.2,16.3 128.3,16.9 C128.3,19.7 128.3,22.5 128.2,25.4 Z" id="形状" fill="#000000" fill-rule="nonzero"></path>
            <path d="M25.4,150.6 L13.2,150.6 C12.3,150.6 12.3,150.6 12.3,149.7 L12.3,125.2 C12.3,124.6 12.5,124.4 13.1,124.4 L37.6,124.4 C38.4,124.4 38.4,124.4 38.4,125.3 L38.4,149.8 C38.4,150.6 38.4,150.6 37.6,150.6 L25.4,150.6 Z M25.4,146.9 L34,146.9 C34.5,146.9 34.8,146.8 34.8,146.2 L34.8,129 C34.8,128.4 34.6,128.2 34,128.2 L16.9,128.2 C16.3,128.2 16.1,128.3 16.1,129 L16.1,146.2 C16.1,146.8 16.3,147 16.9,146.9 L25.4,146.9 Z" id="形状" fill="#000000" fill-rule="nonzero"></path>
            <path d="M105.8,46 L109.6,46 L109.6,49.3 C109.6,49.7 109.4,49.8 109.1,49.8 L106.5,49.8 C106.1,49.8 105.9,49.9 105.9,50.4 L105.9,53 C105.9,53.5 106.1,53.6 106.5,53.6 L108.8,53.6 C109.6,53.6 109.6,53.6 109.6,54.5 L109.6,64 C109.6,64.5 109.8,64.7 110.3,64.7 L113.4,64.7 L113.4,67.8 C113.4,68.4 113.6,68.5 114.1,68.5 L117.2,68.5 L117.2,76 C116.2,76 115.1,76.1 114.1,76 C113.6,76 113.4,76.2 113.4,76.7 L113.4,79 C113.4,79.6 113.3,79.8 112.7,79.8 L110.3,79.8 C109.8,79.8 109.6,80 109.6,80.4 L109.6,83.5 L106.5,83.5 C106.1,83.5 105.9,83.7 105.9,84.1 L105.9,86.7 C105.9,87.1 105.8,87.2 105.4,87.2 L100.5,87.2 C100.1,87.2 99.9,87 99.9,86.6 L99.9,84.2 C99.9,83.6 100.1,83.4 100.7,83.4 L105.3,83.4 C105.7,83.4 106,83.3 105.9,82.8 L105.9,80.2 C105.9,79.8 105.7,79.6 105.3,79.6 L102.7,79.6 C102.3,79.6 102.2,79.5 102.2,79.1 L102.2,72.7 C102.2,72.3 102.4,72.1 102.8,72.1 L105.4,72.1 C105.8,72.1 106,72 106,71.5 L106,69 C106,68.5 105.9,68.3 105.3,68.3 L102.9,68.3 C102.4,68.3 102.3,68.1 102.3,67.7 L102.3,50.3 C102.3,49.9 102.5,49.7 102.9,49.7 L105.5,49.7 C105.7,49.7 106,49.5 106,49.3 L105.8,46 Z M109.5,72.2 L106.4,72.2 C106,72.2 105.8,72.3 105.8,72.7 L105.8,75.4 C105.8,75.8 106,75.9 106.3,75.9 L112.7,75.9 C113.1,75.9 113.2,75.7 113.2,75.4 L113.2,72.8 C113.2,72.3 113.1,72.1 112.6,72.1 C111.6,72.1 110.5,72.1 109.5,72.2 L109.5,72.2 Z" id="形状" fill="#000000" fill-rule="nonzero"></path>
            <path d="M139.4,46 L142.6,46 C143.1,46 143.2,45.8 143.2,45.4 L143.2,42.8 C143.2,42.4 143.4,42.3 143.8,42.3 L150.2,42.3 C150.6,42.3 150.8,42.4 150.7,42.8 L150.7,67.6 C150.7,68.5 150.7,68.5 149.8,68.5 L146.9,68.5 L146.9,65.3 C146.9,64.9 146.8,64.7 146.3,64.7 L143.1,64.7 L143.1,61 L146.4,61 C146.8,61 146.9,60.8 146.9,60.5 L146.9,50.2 C146.9,49.8 146.8,49.7 146.4,49.7 L143.7,49.7 C143.3,49.7 143.2,49.9 143.2,50.3 L143.2,52.8 C143.2,53.3 143.1,53.5 142.6,53.5 L140,53.5 C139.5,53.5 139.4,53.3 139.4,52.9 L139.4,46 Z" id="路径" fill="#000000" fill-rule="nonzero"></path>
            <path d="M117,64.7 L123.7,64.7 C124.3,64.7 124.5,64.5 124.5,63.9 L124.5,57.9 C124.5,57.4 124.7,57.2 125.2,57.2 L131.2,57.2 C131.8,57.2 132,57 132,56.5 L132,50.4 C132,49.9 132.1,49.7 132.6,49.7 L135,49.7 C135.5,49.7 135.7,49.9 135.7,50.4 L135.7,60.1 C135.7,60.8 135.9,60.9 136.5,60.9 C137.5,60.8 138.4,60.9 139.4,60.9 L139.4,64.7 L136.3,64.7 C135.9,64.7 135.7,64.6 135.7,64.1 L135.7,61.5 C135.7,61 135.6,60.9 135.1,60.9 L132.8,60.9 C132,60.9 132,60.9 132,61.7 L132,67.4 C132,68.3 132,68.3 131.1,68.3 L117.1,68.3 L117,64.7 Z" id="路径" fill="#000000" fill-rule="nonzero"></path>
            <path d="M143.1,72.2 L143.1,78.9 C143.1,79.5 143.2,79.7 143.9,79.7 L146.2,79.7 C146.7,79.7 147,79.6 146.9,79 C146.8,78.2 146.9,77.4 146.9,76.6 C146.9,76.1 147,75.9 147.5,75.9 L150,75.9 C150.4,75.9 150.6,76 150.6,76.5 L150.6,86.6 C150.6,87.1 150.4,87.2 150,87.2 L146.9,87.2 L146.9,84 C146.9,83.5 146.7,83.4 146.3,83.4 L143.9,83.4 C143.4,83.4 143.2,83.6 143.2,84.1 L143.2,87.2 L140.4,87.2 C139.5,87.2 139.5,87.2 139.5,86.3 L139.5,84.2 C139.5,83.7 139.3,83.5 138.8,83.5 L135.8,83.5 C135.8,82.5 135.7,81.5 135.8,80.4 C135.8,79.8 135.6,79.7 135.1,79.7 L132.6,79.7 C132.2,79.7 132.1,79.6 132.1,79.2 L132.1,76.5 C132.1,76.1 132.3,76 132.7,76 L135.2,76 C135.7,76 136,75.9 135.9,75.3 L135.9,73 C135.9,72.5 136,72.2 136.6,72.3 L139.9,72.3 C140.9,72.1 142.1,72.1 143.1,72.2 L143.1,72.2 Z" id="路径" fill="#000000" fill-rule="nonzero"></path>
            <path d="M16.1,72.2 C15.1,72.2 14.1,72.1 13.1,72.2 C12.6,72.2 12.4,72.1 12.4,71.5 L12.4,50.4 C12.4,49.9 12.5,49.7 13,49.7 L26.7,49.7 C27.2,49.7 27.4,49.9 27.3,50.4 L27.3,52.8 C27.3,53.3 27.1,53.5 26.7,53.5 L20.6,53.5 C20,53.5 19.8,53.7 19.8,54.3 L19.8,60.3 C19.8,60.8 19.7,61.1 19.1,61 L16.9,61 C16.2,61 16.1,61 16.1,61.8 L16.1,72.2 Z" id="路径" fill="#000000" fill-rule="nonzero"></path>
            <path d="M60.9,143.1 C60.9,144.2 60.9,145.3 61,146.5 C61,146.9 60.7,146.9 60.4,146.9 L54.4,146.9 C53.5,146.9 53.5,146.9 53.5,147.8 L53.5,150.1 C53.5,150.5 53.4,150.6 53,150.6 L46.5,150.6 C46.1,150.6 46,150.4 46,150.1 L46,143.7 C46,143.3 46.1,143.1 46.5,143.1 L49.1,143.1 C49.6,143.1 49.7,143 49.7,142.5 L49.7,140 C49.7,139.6 49.8,139.4 50.3,139.4 L56.6,139.4 C57.1,139.4 57.2,139.6 57.2,140 L57.2,142.6 C57.2,143 57.3,143.2 57.7,143.2 L60.9,143.1 Z" id="路径" fill="#000000" fill-rule="nonzero"></path>
            <path d="M49.8,34.8 L46.7,34.8 C46.2,34.8 46.1,35 46.1,35.4 L46.1,38 C46.1,38.4 46,38.6 45.6,38.6 L43,38.6 C42.6,38.6 42.4,38.5 42.4,38.1 L42.4,24.1 C42.4,23.7 42.6,23.5 43,23.6 L45.6,23.6 C46,23.6 46.2,23.8 46.1,24.2 L46.1,26.8 C46.1,27.2 46.2,27.3 46.6,27.3 L53.6,27.3 L53.6,30.2 C53.6,31.2 53.6,31.1 52.7,31.1 L50.5,31.1 C50,31.1 49.8,31.3 49.8,31.8 L49.8,34.8 Z" id="路径" fill="#000000" fill-rule="nonzero"></path>
            <path d="M53.5,16.1 L50.5,16.1 C49.7,16.1 49.7,16.1 49.7,17 L49.7,19.3 C49.7,19.8 49.5,19.9 49.1,19.9 L42.9,19.9 C42.5,19.9 42.3,19.8 42.3,19.3 L42.3,13 C42.3,12.6 42.4,12.4 42.8,12.4 L52.9,12.4 C53.4,12.4 53.5,12.6 53.5,13 L53.5,16.1 Z" id="路径" fill="#000000" fill-rule="nonzero"></path>
            <path d="M16.1,87.2 C15.1,87.2 14.1,87.1 13,87.2 C12.5,87.2 12.3,87 12.3,86.5 L12.3,76.7 C12.3,76.2 12.4,76 13,76 L15.4,76 C15.9,76 16,75.9 16,75.4 L16,72.3 C17.1,72.3 18.3,72.2 19.4,72.3 C19.5,72.3 19.7,72.7 19.7,72.9 L19.7,79.7 L16.6,79.7 C16.1,79.7 15.9,79.9 15.9,80.4 L16.1,87.2 Z" id="路径" fill="#000000" fill-rule="nonzero"></path>
            <path d="M38.5,75.9 L41.5,75.9 C42,75.9 42.2,76 42.2,76.6 L42.2,79 C42.2,79.5 42.3,79.7 42.9,79.7 L53.5,79.7 L53.5,82.3 C53.5,83.6 53.7,83.5 52.3,83.5 L50.4,83.5 C49.8,83.5 49.7,83.7 49.7,84.2 L49.7,86.7 C49.7,87.1 49.6,87.3 49.1,87.3 L46,87.3 L46,84.1 C46,83.6 45.8,83.5 45.4,83.5 L42.8,83.5 C42.4,83.5 42.2,83.3 42.3,82.9 L42.3,80.2 C42.3,79.8 42.2,79.7 41.8,79.7 L38.6,79.7 L38.6,75.9 L38.5,75.9 Z" id="路径" fill="#000000" fill-rule="nonzero"></path>
            <path d="M60.9,128.2 C60.9,129.2 61,130.3 60.9,131.3 C60.9,131.8 61.1,132 61.6,132 L64.2,132 C64.6,132 64.7,132.1 64.7,132.5 L64.7,135.2 C64.7,135.6 64.6,135.7 64.2,135.7 L54,135.7 C53.6,135.7 53.5,135.5 53.5,135.1 L53.5,128.8 C53.5,128.3 53.7,128.2 54.2,128.2 L60.9,128.2 Z" id="路径" fill="#000000" fill-rule="nonzero"></path>
            <path d="M31,90.8 C29.8,90.8 28.7,90.8 27.5,90.9 C26.3,91 25.3,90.9 24.2,90.9 C23.6,90.9 23.5,90.7 23.5,90.2 L23.5,87.8 C23.5,87.4 23.4,87.1 22.9,87.2 L19.8,87.2 L19.8,79.7 L22.8,79.7 C23.4,79.7 23.6,79.8 23.6,80.5 L23.6,82.9 C23.6,83.4 23.8,83.5 24.2,83.5 L27.3,83.5 C27.3,84.5 27.4,85.5 27.3,86.6 C27.3,87.1 27.5,87.3 28,87.3 L30.4,87.3 C30.8,87.3 31,87.4 31,87.9 L31,90.8 Z" id="路径" fill="#000000" fill-rule="nonzero"></path>
            <path d="M139.4,143.1 L139.4,146.5 C139.4,146.6 139,146.9 138.8,146.9 L128.2,146.9 L128.2,143.8 C128.2,143.4 128.3,143.2 128.8,143.2 L131.1,143.2 C131.9,143.2 132,143.1 131.9,142.4 C131.8,141.4 131.9,140.4 131.9,139.4 C132.9,139.4 133.9,139.5 134.9,139.4 C135.5,139.4 135.7,139.6 135.7,140.2 L135.7,142.5 C135.7,143 135.9,143.1 136.3,143.1 L139.4,143.1 Z" id="路径" fill="#000000" fill-rule="nonzero"></path>
            <path d="M19.8,87.1 L19.8,93.7 C19.8,94.5 19.8,94.5 18.9,94.5 L16.6,94.5 C16.1,94.5 16,94.7 16,95.1 L16,97.7 C16,98.1 15.8,98.3 15.4,98.3 L12.8,98.3 C12.4,98.3 12.2,98.2 12.2,97.7 L12.2,91.3 C12.2,90.9 12.4,90.7 12.8,90.8 L15.2,90.8 C15.8,90.8 16,90.6 15.9,90 L15.9,87.1 L19.8,87.1 Z" id="路径" fill="#000000" fill-rule="nonzero"></path>
            <path d="M117,53.5 L117,64.7 L113.2,64.7 L113.2,54.2 C113.2,53.9 113.1,53.5 113.7,53.5 L117,53.5 Z" id="路径" fill="#000000" fill-rule="nonzero"></path>
            <path d="M53.5,75.8 L50.1,75.8 C50,75.8 49.7,75.5 49.7,75.3 L49.7,72.7 C49.7,72.2 49.5,72.1 49.1,72.1 L46.7,72.1 C46.2,72.1 46,72 46,71.4 L46,68.3 L52.8,68.3 C53.4,68.3 53.6,68.5 53.6,69 L53.5,75.8 Z" id="路径" fill="#000000" fill-rule="nonzero"></path>
            <path d="M139.4,46 L128.2,46 L128.2,42.8 C128.2,42.4 128.4,42.2 128.8,42.2 L138.8,42.2 C139.2,42.2 139.4,42.3 139.4,42.8 L139.4,46 Z" id="路径" fill="#000000" fill-rule="nonzero"></path>
            <path d="M27.3,83.4 C27.3,81.2 27.3,78.9 27.3,76.7 C27.3,76.1 27.4,75.9 28.1,75.9 C29.1,76 30.1,75.9 31,75.9 L31,82.9 C31,83.3 30.8,83.5 30.4,83.5 L27.3,83.4 Z" id="路径" fill="#000000" fill-rule="nonzero"></path>
            <path d="M79.6,16.1 L79.6,13 C79.6,12.5 79.7,12.3 80.2,12.3 L86.5,12.3 C86.9,12.3 87.1,12.4 87.1,12.9 L87.1,15.5 C87.1,15.9 86.9,16.1 86.5,16.1 L79.6,16.1 Z" id="路径" fill="#000000" fill-rule="nonzero"></path>
            <path d="M128.2,45.9 L128.2,52.9 C128.2,53.3 128,53.4 127.7,53.4 L125,53.4 C124.6,53.4 124.5,53.2 124.5,52.9 L124.5,46.4 C124.5,45.9 124.7,45.9 125.1,45.9 L128.2,45.9 Z" id="路径" fill="#000000" fill-rule="nonzero"></path>
            <path d="M117,46 L120.1,46 C120.5,46 120.7,46.1 120.7,46.6 L120.7,52.9 C120.7,53.4 120.5,53.5 120.1,53.5 L117,53.5 L117,46 Z" id="路径" fill="#000000" fill-rule="nonzero"></path>
            <path d="M109.5,46 L109.5,42.8 C109.5,42.4 109.6,42.2 110.1,42.2 L116.4,42.2 C116.8,42.2 117,42.4 117,42.8 L117,46 L109.5,46 Z" id="路径" fill="#000000" fill-rule="nonzero"></path>
            <path d="M146.9,150.6 L143.8,150.6 C143.4,150.6 143.2,150.5 143.2,150 L143.2,147.4 C143.2,147 143.3,146.8 143.7,146.8 L150.1,146.8 C150.5,146.8 150.7,146.9 150.7,147.4 L150.7,150 C150.7,150.4 150.5,150.6 150.1,150.6 L146.9,150.6 Z" id="路径" fill="#000000" fill-rule="nonzero"></path>
            <path d="M102.1,19.8 L98.9,19.8 C98.5,19.8 98.3,19.6 98.3,19.2 L98.3,16.6 C98.3,16.2 98.4,16.1 98.8,16.1 L105.2,16.1 C105.6,16.1 105.7,16.2 105.7,16.6 L105.7,19.3 C105.7,19.7 105.5,19.8 105.1,19.8 L102.1,19.8 Z" id="路径" fill="#000000" fill-rule="nonzero"></path>
            <path d="M72.2,128.2 L72.2,124.4 L79.6,124.4 L79.6,127.7 C79.6,128.1 79.4,128.2 79.1,128.2 L72.2,128.2 Z" id="路径" fill="#000000" fill-rule="nonzero"></path>
            <path d="M53.5,46 L53.5,42.2 L58.9,42.2 C59.6,42.2 60.2,42.2 60.9,42.1 L60.9,45.4 C60.9,45.7 60.7,45.9 60.4,45.9 L53.5,46 Z" id="路径" fill="#000000" fill-rule="nonzero"></path>
            <path d="M53.5,42.2 C52.4,42.2 51.3,42.2 50.1,42.3 C49.6,42.3 49.7,42 49.7,41.7 L49.7,34.9 L52.7,34.9 C53.3,34.9 53.5,35.1 53.5,35.6 L53.5,42.2 Z" id="路径" fill="#000000" fill-rule="nonzero"></path>
            <path d="M46,120.8 L49.2,120.8 C49.6,120.8 49.8,120.9 49.8,121.4 L49.8,124 C49.8,124.4 49.7,124.6 49.3,124.6 L42.9,124.6 C42.5,124.6 42.3,124.5 42.3,124 L42.3,121.3 C42.3,120.9 42.5,120.8 42.8,120.8 L46,120.8 Z" id="路径" fill="#000000" fill-rule="nonzero"></path>
            <path d="M31,75.9 L31,72.8 C31,72.4 31.1,72.2 31.6,72.2 L37.9,72.2 C38.4,72.2 38.5,72.4 38.5,72.8 L38.5,75.9 L31,75.9 Z" id="路径" fill="#000000" fill-rule="nonzero"></path>
            <polygon id="路径" fill="#000000" fill-rule="nonzero" points="75.8 16.1 79.6 16.1 79.6 19.9 75.8 19.9"></polygon>
            <path d="M146.9,68.4 L146.9,71.4 C146.9,71.9 146.8,72.1 146.2,72.1 L143.1,72.1 L143.1,68.4 L146.9,68.4 Z" id="路径" fill="#000000" fill-rule="nonzero"></path>
            <path d="M53.5,117 L50.4,117 C49.9,117 49.6,116.9 49.7,116.3 L49.7,113.2 L52.8,113.2 C53.4,113.2 53.5,113.4 53.5,113.9 L53.5,117 Z" id="路径" fill="#000000" fill-rule="nonzero"></path>
            <path d="M113.3,128.2 L113.3,131.3 C113.3,131.8 113.1,131.9 112.6,131.9 L109.5,131.9 L109.5,128.8 C109.5,128.3 109.6,128.1 110.1,128.1 L113.3,128.2 Z" id="路径" fill="#000000" fill-rule="nonzero"></path>
            <path d="M64.7,16.1 L61.5,16.1 C61.1,16.1 61,15.9 61,15.5 L61,12.9 C61,12.5 61.1,12.3 61.5,12.3 L64.1,12.3 C64.6,12.3 64.7,12.5 64.7,12.9 L64.7,16.1 Z" id="路径" fill="#000000" fill-rule="nonzero"></path>
            <path d="M16.1,113.3 L13,113.3 C12.5,113.3 12.4,113.1 12.4,112.7 L12.4,110.1 C12.4,109.7 12.5,109.5 13,109.5 L15.6,109.5 C16,109.5 16.2,109.6 16.2,110.1 L16.1,113.3 Z" id="路径" fill="#000000" fill-rule="nonzero"></path>
            <path d="M64.7,16.1 L67.8,16.1 C68.2,16.1 68.5,16.2 68.4,16.7 L68.4,19.3 C68.4,19.7 68.3,19.8 67.9,19.8 L65.2,19.8 C64.8,19.8 64.7,19.6 64.7,19.2 L64.7,16.1 Z" id="路径" fill="#000000" fill-rule="nonzero"></path>
            <path d="M79.6,19.9 L82.9,19.9 C83.2,19.9 83.4,20.1 83.4,20.4 L83.4,23 C83.4,23.4 83.3,23.6 82.8,23.6 L80.2,23.6 C79.8,23.6 79.6,23.4 79.6,23 L79.6,19.9 Z" id="路径" fill="#000000" fill-rule="nonzero"></path>
            <path d="M47.9,132 C46,132 46,132 46,130.1 L46,128.7 C46,128.2 46.1,128.2 46.5,128.2 L49.3,128.2 C49.7,128.2 49.8,128.4 49.8,128.7 L49.8,131.5 C49.8,131.9 49.6,132 49.3,132 C49,132 48.3,132 47.9,132 Z" id="路径" fill="#000000" fill-rule="nonzero"></path>
            <path d="M21.8,64.7 C23.6,64.7 23.6,64.7 23.6,66.5 L23.6,67.9 C23.6,68.3 23.5,68.4 23.1,68.4 L20.4,68.4 C20,68.4 19.9,68.3 19.9,67.9 L19.9,65.2 C19.9,64.8 20.1,64.6 20.4,64.6 L21.8,64.7 Z" id="路径" fill="#000000" fill-rule="nonzero"></path>
            <path d="M72.2,146.9 C72.2,147.9 72.1,148.9 72.1,149.9 C72.1,150.4 71.9,150.7 71.4,150.6 L69,150.6 C68.6,150.6 68.4,150.5 68.4,150 L68.4,147.4 C68.4,147 68.5,146.8 68.9,146.9 L72.2,146.9 Z" id="路径" fill="#000000" fill-rule="nonzero"></path>
            <path d="M38.5,44.1 L38.5,45.4 C38.5,45.8 38.4,46 38,46 L35.3,46 C34.9,46 34.8,45.9 34.8,45.5 L34.8,42.8 C34.8,42.5 34.9,42.3 35.3,42.3 L38,42.3 C38.3,42.3 38.5,42.4 38.5,42.8 C38.5,43.2 38.5,43.7 38.5,44.1 L38.5,44.1 Z" id="路径" fill="#000000" fill-rule="nonzero"></path>
            <path d="M60.9,143.1 C60.9,142.1 61,141.1 60.9,140 C60.9,139.5 61.1,139.3 61.6,139.3 L64.1,139.3 C64.5,139.3 64.7,139.4 64.7,139.9 L64.7,142.5 C64.7,142.8 64.7,143 64.3,143 L60.9,143.1 Z" id="路径" fill="#000000" fill-rule="nonzero"></path>
            <path d="M139.4,60.9 C139.4,59.9 139.5,58.9 139.4,57.8 C139.4,57.3 139.6,57.1 140,57.1 L142.6,57.1 C143,57.1 143.1,57.2 143.1,57.6 L143.1,60.8 L139.4,60.8 L139.4,60.9 Z" id="路径" fill="#000000" fill-rule="nonzero"></path>
            <path d="M75.8,16.1 L72.7,16.1 C72.2,16.1 72.1,15.9 72.1,15.5 L72.1,13 C72.1,12.5 72.3,12.4 72.7,12.4 L75.3,12.4 C75.6,12.4 75.8,12.5 75.8,12.8 C75.9,13.9 75.9,15 75.8,16.1 Z" id="路径" fill="#000000" fill-rule="nonzero"></path>
            <path d="M42.2,137.6 L42.2,136.2 C42.2,135.7 42.3,135.6 42.7,135.7 L45.5,135.7 C45.8,135.7 46,135.9 46,136.2 L46,139 C46,139.4 45.8,139.5 45.5,139.5 L42.7,139.5 C42.3,139.5 42.2,139.3 42.2,139 L42.2,137.6 Z" id="路径" fill="#000000" fill-rule="nonzero"></path>
            <path d="M25.5,42.3 L26.7,42.3 C27.1,42.3 27.3,42.4 27.3,42.9 L27.3,45.5 C27.3,46 27.1,46.1 26.7,46.1 L24.1,46.1 C23.6,46.1 23.5,45.9 23.5,45.5 L23.5,42.9 C23.5,42.4 23.7,42.3 24.1,42.3 C24.5,42.3 25,42.3 25.5,42.3 L25.5,42.3 Z" id="路径" fill="#000000" fill-rule="nonzero"></path>
            <path d="M75.8,19.8 L75.8,23.1 C75.7,23.3 75.6,23.4 75.4,23.5 L72.5,23.5 C72.3,23.4 72.2,23.3 72.1,23.1 L72.1,20.2 C72.1,19.8 72.4,19.8 72.7,19.8 L75.8,19.8 Z" id="路径" fill="#000000" fill-rule="nonzero"></path>
            <path d="M27.3,74 C27.3,75.9 27.3,75.9 25.4,75.9 C23.5,75.9 23.5,75.9 23.5,74 C23.5,72.1 23.5,72.1 25.4,72.1 C27.3,72.1 27.3,72.2 27.3,74 Z" id="路径" fill="#000000" fill-rule="nonzero"></path>
            <g id="编组" transform="translate(16.000000, 16.000000)" fill="#FFFFFF" fill-rule="nonzero">
                <path d="M89.8,30 L89.8,33.4 C89.8,33.5 89.5,33.8 89.3,33.8 L86.7,33.8 C86.3,33.8 86.1,33.9 86.1,34.4 L86.1,51.9 C86.1,52.4 86.3,52.5 86.7,52.5 L89.1,52.5 C89.6,52.5 89.8,52.7 89.8,53.2 L89.8,55.7 C89.8,56.1 89.6,56.3 89.2,56.3 L86.6,56.3 C86.2,56.3 86,56.5 86,56.9 L86,63.3 C86,63.7 86.2,63.8 86.5,63.8 L89.1,63.8 C89.5,63.8 89.7,64 89.7,64.4 L89.7,67 C89.7,67.5 89.5,67.6 89.1,67.6 L84.5,67.6 C83.9,67.6 83.7,67.8 83.7,68.4 C83.8,69.2 83.7,70 83.7,70.8 C83.7,71.2 83.9,71.4 84.3,71.4 L89.2,71.4 C89.6,71.4 89.7,71.2 89.7,70.9 L89.7,68 C89.7,67.6 89.8,67.4 90.3,67.4 L93.4,67.4 L93.4,73.8 C93.4,74.9 93.4,74.9 94.4,74.9 L103.9,74.9 C104.4,74.9 104.6,75 104.6,75.6 C104.6,76.6 104.6,77.6 104.7,78.6 C103.6,78.6 102.5,78.6 101.4,78.7 C101,78.7 100.8,78.8 100.8,79.3 L100.8,86.3 L97,86.3 L97,79.5 C97,78.9 96.8,78.7 96.2,78.7 L90.2,78.7 C89.6,78.7 89.4,78.5 89.5,77.9 L89.5,75.5 C89.5,75.1 89.4,74.9 88.9,74.9 L86.3,74.9 C85.9,74.9 85.7,75.1 85.7,75.5 L85.7,81.9 C85.7,82.3 85.9,82.4 86.3,82.4 L88.8,82.4 C89.2,82.4 89.4,82.5 89.4,83 L89.4,85.6 C89.4,86 89.2,86.1 88.8,86.1 L82.5,86.1 C82.1,86.1 81.9,86 81.9,85.5 L81.9,83.1 C81.9,82.9 81.9,82.6 81.8,82.4 C81.3,82.8 80.8,83.1 80.3,83.4 C79.8,83.7 79.3,83.8 78.7,83.9 C78.2,84 78,84.1 78,84.6 C78,86.2 78,86.2 76.4,86.2 L75,86.2 C74.6,86.2 74.3,86.4 74.3,86.9 L74.3,93 C74.3,93.6 74.1,93.8 73.5,93.8 L67.5,93.8 C67,93.8 66.8,93.6 66.8,93.1 L66.8,90.7 C66.8,90.3 66.9,90.1 67.4,90.1 L69.9,90.1 C70.3,90.1 70.6,90 70.5,89.5 L70.5,86.9 C70.5,86.6 70.4,86.4 70,86.4 L66.8,86.5 L66.8,84.9 C66.8,84.3 66.7,84.2 66.2,84.2 L64,84.2 C63.6,84.2 63.4,84.4 63.4,84.8 C63.4,86.3 63.4,86.3 61.8,86.3 L60.2,86.3 C59.7,86.3 59.6,86.2 59.7,85.8 L59.7,85.7 C59.7,84.1 59.7,84.1 58,84.1 L47.8,84.1 C46.2,84 46.9,79.5 46.9,78 L46.9,68.4 C46.9,67.8 46.7,67.6 46.1,67.6 C44.7,67.6 44.7,67.6 44.7,66.2 L44.7,63.9 L46.4,63.9 C46.8,63.9 46.9,63.7 46.9,63.4 L46.9,60.7 C46.9,60.3 46.7,60.2 46.4,60.2 L44.7,60.2 L44.7,48.8 L48.1,48.8 C48.4,48.8 48.7,48.7 48.9,48.5 C50,47.7 51.3,47.3 52.7,47.3 C53.6,47.4 54.4,47.3 55.3,47.3 C55.8,47.3 56,47.1 56,46.6 L56,42 C56,41.5 55.8,41.3 55.3,41.4 L52.7,41.4 C52.3,41.4 52.2,41.3 52.2,40.9 L52.2,37.7 C53.2,37.7 54.2,37.6 55.1,37.7 C55.7,37.7 55.9,37.5 55.9,36.9 C55.9,35.9 55.9,34.8 55.9,33.8 C55.9,32.6 55.9,31.4 56,30.2 L59.1,30.2 C59.6,30.2 59.7,30.4 59.7,30.8 L59.7,37 C59.7,37.5 59.9,37.8 60.4,37.7 L62.7,37.7 C63.3,37.7 63.5,37.5 63.5,36.9 L63.5,31 C63.5,30.2 63.5,30.2 64.3,30.2 L66.6,30.2 C67,30.2 67.2,30.4 67.2,30.8 L67.2,33.4 C67.2,33.8 67.4,34 67.8,34 L70.4,34 C70.8,34 71,34.1 71,34.6 L71,37.2 C71,37.6 71.1,37.8 71.6,37.8 L74.2,37.8 C74.6,37.8 74.8,37.6 74.8,37.2 L74.8,34.7 C74.8,34.2 75,34 75.5,34 L81.4,34 C82.3,34 82.3,34 82.3,33 L82.3,26.4 C83.3,26.4 84.3,26.5 85.4,26.4 C85.9,26.4 86.1,26.6 86.1,27.1 L86.1,29.6 C86.1,29.9 86.2,30.1 86.6,30.1 L89.8,30 Z M71.2,44.9 L74.4,44.9 C74.6,44.9 74.8,44.6 74.8,44.4 L74.8,41.6 C74.7,41.4 74.6,41.2 74.4,41.2 C73.5,41.2 72.5,41.2 71.6,41.2 C71.4,41.3 71.2,41.4 71.2,41.6 L71.2,44.9 L67.9,44.9 C67.4,44.9 67.3,45.2 67.4,45.6 C67.5,46 66.9,48 67.9,48.2 C68.8,48.3 69.7,48.3 70.6,48.2 C71,48.2 71.1,46.9 71.1,46.5 C71.1,46.1 71.1,45.5 71.2,44.9 Z M82.3,41.2 L82.3,38.1 C82.3,37.6 82.1,37.5 81.7,37.5 L79.1,37.5 C78.7,37.5 78.5,37.6 78.5,38 L78.5,44.4 C78.5,44.8 78.7,45 79.1,44.9 L81.7,44.9 C82.2,44.9 82.3,44.7 82.3,44.3 C82.3,43.3 82.3,42.2 82.3,41.2 L82.3,41.2 Z M63.6,44.2 L63.6,41.8 C63.6,41.4 63.5,41.3 63.1,41.3 L60.3,41.3 C60,41.3 59.8,41.5 59.8,41.8 L59.8,46.7 C59.8,47.1 60,47.3 60.4,47.3 L63,47.3 C63.5,47.3 63.7,47.1 63.6,46.6 C63.6,45.7 63.6,45 63.6,44.2 L63.6,44.2 Z" id="形状"></path>
                <path d="M97.3,112.2 L94.2,112.2 C93.7,112.2 93.5,112.4 93.6,112.9 L93.6,116 L90.5,116 C90.1,116 89.9,115.8 89.9,115.4 L89.9,112.8 C89.9,112.4 89.8,112.3 89.4,112.3 L86.8,112.3 C86.3,112.3 86.2,112.5 86.2,112.9 L86.2,119 C86.2,119.6 86,119.8 85.4,119.7 L83,119.7 C82.6,119.7 82.4,119.8 82.4,120.3 L82.4,123.4 C82.1,123.4 81.9,123.5 81.6,123.5 L75.7,123.5 C75.4,123.5 75.1,123.4 74.8,123.4 C74.8,122.3 74.9,121.2 74.8,120.1 C74.8,120 74.5,119.8 74.3,119.8 L71.8,119.8 C71.4,119.8 71.2,119.7 71.2,119.2 L71.2,116.6 C71.2,116.2 71.1,116 70.6,116 L68,116 C67.5,116 67.4,116.2 67.4,116.6 L67.4,119 C67.4,119.5 67.3,119.7 66.8,119.7 L60.5,119.7 C60.1,119.7 59.9,119.6 59.9,119.1 L59.9,116.5 C59.9,116 59.7,115.9 59.3,115.9 L56.8,115.9 C56.3,115.9 56.1,115.8 56.1,115.3 C56.1,114.3 56.1,113.2 56.1,112.2 L63.1,112.2 C63.4,112.2 63.7,112.1 63.6,111.7 C63.6,110.6 63.6,109.5 63.6,108.4 L67.4,108.4 L67.4,111.7 C67.4,112.1 67.6,112.2 67.9,112.2 L70.5,112.2 C70.9,112.2 71.1,112 71.1,111.6 L71.1,109.1 C71.1,108.6 70.9,108.5 70.4,108.5 L67.3,108.5 L67.3,105.4 C67.3,105 67.2,104.8 66.7,104.8 L64.2,104.8 C63.7,104.8 63.5,105 63.5,105.5 L63.5,108.5 L56.1,108.5 C56.1,107.4 56.1,106.4 56.1,105.3 C56.1,104.9 56.3,104.8 56.6,104.8 L59.2,104.8 C59.7,104.8 59.9,104.6 59.9,104.1 L59.9,101.7 C59.9,101.1 60.1,100.9 60.7,101 L63.1,101 C63.5,101 63.7,100.8 63.6,100.4 L63.6,97.2 L66.7,97.2 C67.2,97.2 67.4,97.4 67.3,97.9 L67.3,100.2 C67.3,101 67.5,101 68.1,101 L71.1,101 L71.1,104.2 C71.1,104.6 71.3,104.7 71.7,104.7 L74.2,104.7 C74.7,104.7 74.9,104.8 74.9,105.3 L74.9,107.8 C74.9,108.2 75,108.4 75.5,108.4 L81.8,108.4 C82.2,108.4 82.4,108.2 82.4,107.8 L82.4,105.2 C82.4,104.9 82.4,104.6 82.9,104.6 L86.2,104.6 L86.2,107.8 C86.2,108.1 86.4,108.3 86.7,108.3 L89.5,108.3 C89.7,108.3 89.9,108.1 89.9,107.9 C89.9,106.9 89.9,106 89.9,105 C89.9,104.8 89.7,104.6 89.5,104.6 C88.4,104.6 87.3,104.6 86.2,104.6 L86.2,101 L96.8,101 C97.2,101 97.4,101.1 97.4,101.6 L97.4,104.2 C97.4,104.6 97.2,104.8 96.8,104.7 L94.2,104.7 C93.8,104.7 93.6,104.9 93.6,105.3 L93.6,107.9 C93.6,108.3 93.8,108.5 94.2,108.5 L96.8,108.5 C97.2,108.5 97.4,108.6 97.4,109.1 C97.2,110.1 97.3,111.2 97.3,112.2 L97.3,112.2 Z M78.6,116 L81.8,116 C82.2,116 82.4,115.9 82.4,115.5 L82.4,112.8 C82.4,112.4 82.3,112.3 81.9,112.3 L75.4,112.3 C75,112.3 74.9,112.5 74.9,112.8 L74.9,115.4 C74.9,115.8 75.1,116 75.5,116 L78.6,116 Z" id="形状"></path>
                <path d="M37.5,101.1 L37.5,98 C37.5,97.5 37.4,97.2 36.8,97.3 L33.7,97.3 L33.7,90.5 C33.7,90 33.6,89.8 33,89.8 L30.6,89.8 C30.1,89.8 29.9,89.6 29.9,89.1 L29.9,83 C29.9,82.5 29.7,82.2 29.2,82.3 L26.8,82.3 C26.3,82.3 26.1,82.2 26.1,81.7 L26.1,79.2 C26.1,78.7 26.3,78.6 26.7,78.6 L33,78.6 C33.5,78.6 33.8,78.4 33.7,77.9 C33.7,77.1 33.7,76.4 33.7,75.6 C33.7,75.1 33.6,74.8 33,74.9 L30.7,74.9 C30.1,74.9 29.9,74.7 30,74.1 L30,71.2 L33.2,71.2 C33.6,71.2 33.8,71 33.8,70.6 L33.8,68 C33.8,67.5 33.9,67.3 34.5,67.3 C35.1,67.3 35.7,67.3 36.4,67.3 C37.8,67.3 37.6,67.5 37.6,66.1 L37.6,63.5 L40.7,63.5 C41.2,63.5 41.4,63.6 41.4,64.1 L41.4,70.2 C41.4,70.8 41.6,71 42.1,70.9 L44.6,70.9 C45.1,70.9 45.2,71.1 45.2,71.6 L45.2,74 C45.2,74.5 45,74.7 44.5,74.7 L38.4,74.7 C37.8,74.7 37.6,74.9 37.6,75.5 L37.6,81.5 C37.6,82.2 37.8,82.3 38.4,82.3 C39,82.3 39.9,82.3 40.6,82.3 C41.1,82.3 41.3,82.4 41.3,83 L41.3,85.6 C41.3,85.9 41.2,86.1 40.8,86.1 L38.2,86.1 C37.7,86.1 37.6,86.2 37.6,86.7 L37.6,93 C37.6,93.5 37.8,93.6 38.2,93.6 L40.7,93.6 C41.1,93.6 41.3,93.7 41.3,94.2 L41.3,100.5 C41.3,100.9 41.1,101.1 40.7,101.1 C39.6,101 38.5,101 37.5,101.1 L37.5,101.1 Z" id="路径"></path>
                <path d="M127.1,52.4 L127.1,56.2 C126,56.2 124.8,56.2 123.7,56.1 C122.6,56 121.5,56.1 120.4,56.1 C119.8,56.1 119.7,56.3 119.7,56.8 L119.7,59.1 C119.7,59.7 119.5,59.8 119,59.8 L116.6,59.8 C116.2,59.8 116,59.9 116,60.3 L116,63 C116,63.4 116.1,63.5 116.5,63.5 L119.1,63.5 C119.6,63.5 119.8,63.7 119.8,64.2 L119.8,67.3 L113,67.3 C112.4,67.3 112.2,67.1 112.2,66.5 L112.2,56.9 C112.2,56.1 112.2,56.1 111.3,56.1 L105.4,56.1 C104.8,56.1 104.7,56.3 104.7,56.8 L104.7,59.2 C104.7,59.6 104.6,59.8 104.2,59.8 L101,59.8 L101,52.3 L115,52.3 C115.9,52.3 115.9,52.3 115.9,51.4 L115.9,45.6 C115.9,44.8 115.9,44.8 116.7,44.8 L119,44.8 C119.4,44.8 119.6,44.9 119.6,45.4 L119.6,48 C119.6,48.5 119.8,48.6 120.2,48.6 L123.3,48.6 C123.3,49.4 123.4,50.2 123.4,51 C123.4,52.5 123.2,52.3 124.7,52.3 L127.1,52.4 Z" id="路径"></path>
                <path d="M93.5,67.4 C93.5,66.3 93.6,65.3 93.5,64.3 C93.5,63.8 93.7,63.6 94.2,63.7 L96.6,63.7 C97.2,63.7 97.4,63.5 97.3,62.9 L97.3,60.6 C97.3,60.1 97.4,59.9 98,59.9 L101.1,59.9 L101.1,66.9 C101.1,67.3 101.3,67.4 101.6,67.4 L104.3,67.4 C104.7,67.4 104.8,67.2 104.8,66.9 L104.8,64.3 C104.8,63.9 105,63.7 105.4,63.7 L108,63.7 C108.4,63.7 108.6,63.9 108.6,64.3 L108.6,74.3 C108.6,74.7 108.5,74.9 108,74.9 L105.4,74.9 C105,74.9 104.8,74.8 104.8,74.3 L104.8,72 C104.8,71.2 104.8,71.2 104,71.2 L98,71.2 C97.4,71.2 97.3,71 97.3,70.5 L97.3,68.1 C97.3,67.7 97.1,67.5 96.7,67.5 L93.5,67.4 Z" id="路径"></path>
                <path d="M116,123.4 C116,124.4 115.9,125.4 116,126.4 C116,127 115.8,127.2 115.2,127.2 C114.6,127.2 113.6,127.2 112.9,127.2 C112.4,127.2 112.3,127.4 112.3,127.8 L112.3,130.9 L105.8,130.9 C104.9,130.9 104.9,130.9 104.9,129.9 L104.9,127.8 C104.9,127.3 104.7,127.2 104.2,127.2 L101.8,127.2 C101.4,127.2 101.1,127.1 101.2,126.6 L101.2,120.3 C101.2,119.9 101.4,119.7 101.8,119.7 L104.4,119.7 C104.8,119.7 105,119.8 105,120.3 L105,122.9 C105,123.4 105.2,123.5 105.6,123.5 L108.1,123.5 C108.6,123.5 108.7,123.3 108.7,122.9 L108.7,120.5 C108.7,120 108.8,119.8 109.3,119.8 L111.7,119.8 C112.2,119.8 112.4,120 112.4,120.5 L112.4,122.9 C112.4,123.4 112.5,123.6 113,123.6 L116,123.4 Z" id="路径"></path>
                <path d="M110.4,116 L105.4,116 C104.9,116 104.7,115.9 104.7,115.3 L104.7,105.5 C104.7,104.9 104.9,104.8 105.4,104.8 L115.2,104.8 C115.7,104.8 115.9,105 115.9,105.5 L115.9,115.3 C115.9,115.9 115.7,116.1 115.1,116 C113.6,115.9 112,116 110.4,116 L110.4,116 Z M110.4,112.3 L111.7,112.3 C112.1,112.3 112.3,112.2 112.3,111.8 L112.3,109 C112.3,108.6 112.2,108.5 111.8,108.5 L109,108.5 C108.6,108.5 108.5,108.7 108.5,109.1 C108.5,109.5 108.5,110 108.5,110.4 C108.5,112.2 108.5,112.2 110.4,112.3 L110.4,112.3 Z" id="形状"></path>
                <path d="M71.2,101.1 C71.2,100 71.2,98.9 71.2,97.8 C71.2,97.4 71.4,97.3 71.7,97.3 L74.3,97.3 C74.7,97.3 74.9,97.2 74.9,96.7 L74.9,94.1 C74.9,93.7 75.1,93.6 75.5,93.6 L78,93.6 C78.5,93.6 78.6,93.8 78.6,94.3 L78.6,96.7 C78.6,97.1 78.7,97.4 79.2,97.3 L81.8,97.3 C82.2,97.3 82.3,97.2 82.3,96.8 L82.3,94.2 C82.3,93.8 82.4,93.6 82.9,93.6 L85.5,93.6 C86,93.6 86.1,93.8 86.1,94.2 L86.1,101.1 L79.1,101.1 C78.7,101.1 78.5,101.3 78.5,101.7 L78.5,104.2 C78.5,104.6 78.4,104.9 77.9,104.8 L75.3,104.8 C74.9,104.8 74.8,104.7 74.8,104.3 L74.8,101.7 C74.8,101.2 74.7,101 74.2,101 L71.2,101.1 Z" id="路径"></path>
                <path d="M130.9,101 L116.7,101 C116.1,101 115.9,100.8 116,100.2 L116,97.2 L122.8,97.2 C123.1,97.2 123.4,97.2 123.4,96.7 L123.4,93.4 L126.7,93.4 C127.1,93.4 127.3,93.2 127.2,92.8 L127.2,90.2 C127.2,89.8 127.3,89.6 127.8,89.7 L130.4,89.7 C130.9,89.7 131,89.9 131,90.4 L130.9,101 Z" id="路径"></path>
                <path d="M37.5,59.9 L37.5,53.2 C37.5,52.6 37.3,52.4 36.7,52.5 L30,52.5 L30,48.8 L33.1,48.8 C33.6,48.8 33.8,48.6 33.8,48.1 L33.8,45.8 C33.8,45.3 33.9,45 34.5,45 L37.6,45 L37.6,48.2 C37.6,48.7 37.8,48.8 38.2,48.8 L40.6,48.8 C41.2,48.8 41.3,49 41.3,49.6 L41.3,59.4 C41.3,59.6 41.3,59.8 41.2,60 L37.5,59.9 Z" id="路径"></path>
                <path d="M119.8,67.4 L122.8,67.4 C123.3,67.4 123.5,67.5 123.5,68.1 L123.5,70.2 C123.5,71.1 123.5,71.1 124.4,71.1 L127.2,71.1 L127.2,74.2 C127.2,74.7 127,74.9 126.5,74.8 L124.1,74.8 C123.6,74.8 123.4,75 123.5,75.5 L123.5,78 C123.5,78.4 123.3,78.6 122.9,78.6 L112.9,78.6 C112.5,78.6 112.3,78.5 112.3,78 L112.3,75.4 C112.3,74.9 112.5,74.8 112.9,74.8 L119,74.8 C119.6,74.8 119.8,74.6 119.8,74 C119.7,71.8 119.8,69.6 119.8,67.4 L119.8,67.4 Z" id="路径"></path>
                <path d="M125.3,82.3 L130.2,82.3 C130.6,82.3 130.8,82.4 130.8,82.9 L130.8,85.5 C130.8,85.9 130.6,86.1 130.2,86.1 L127.6,86.1 C127.2,86.1 127,86.3 127,86.7 L127,89.3 C127,89.7 126.9,89.8 126.5,89.8 L123.7,89.8 C123.3,89.8 123.2,89.6 123.2,89.3 L123.2,86.7 C123.2,86.2 123,86.1 122.6,86.1 L120.1,86.1 C119.6,86.1 119.5,85.9 119.5,85.5 L119.5,83 C119.5,82.5 119.7,82.4 120.1,82.4 L125.3,82.3 Z" id="路径"></path>
                <path d="M63.6,97.3 L53.1,97.3 C52.6,97.3 52.4,97.1 52.4,96.6 L52.4,94.2 C52.4,93.7 52.6,93.6 53,93.6 L59.2,93.6 C59.8,93.6 59.9,93.4 59.9,92.9 L59.9,90.5 C59.9,90.1 60,89.8 60.5,89.9 L63.1,89.9 C63.5,89.9 63.7,90 63.7,90.4 L63.6,97.3 Z" id="路径"></path>
                <path d="M97.3,86.1 L97.3,89.1 C97.3,89.7 97.1,89.9 96.5,89.9 L94.2,89.9 C93.7,89.9 93.6,90.1 93.6,90.6 L93.6,96.7 C93.6,97.3 93.4,97.5 92.8,97.5 L90.4,97.5 C90,97.5 89.8,97.3 89.8,96.9 L89.8,86.7 C89.8,86.5 90,86.2 90.2,86.2 L97.3,86.1 Z" id="路径"></path>
                <path d="M123.4,116 L120.4,116 C119.9,116 119.7,115.9 119.7,115.4 L119.7,105.4 C119.7,104.9 119.8,104.8 120.3,104.8 L126.5,104.8 C127,104.8 127.2,104.9 127.2,105.5 L127.2,107.9 C127.2,108.4 127.1,108.6 126.6,108.6 L124.3,108.6 C123.5,108.6 123.5,108.6 123.5,109.4 L123.5,115.3 C123.4,115.5 123.4,115.8 123.4,116 L123.4,116 Z" id="路径"></path>
                <path d="M97.3,93.5 L97.3,90.3 C97.3,89.9 97.5,89.7 97.9,89.8 L100.5,89.8 C100.9,89.8 101.1,90 101.1,90.4 L101.1,92.9 C101.1,93.4 101.3,93.6 101.8,93.5 L104.3,93.5 C104.7,93.5 104.9,93.7 104.9,94.1 L104.9,96.7 C104.9,97.1 104.8,97.2 104.4,97.2 L97.9,97.2 C97.5,97.2 97.4,97 97.4,96.7 C97.3,95.7 97.3,94.6 97.3,93.5 L97.3,93.5 Z" id="路径"></path>
                <path d="M123.4,127.2 L120.3,127.2 C119.8,127.2 119.7,127.1 119.7,126.6 L119.7,124.3 C119.7,123.7 119.6,123.4 118.9,123.5 L115.9,123.5 L115.9,120.4 C115.9,119.9 116,119.8 116.5,119.8 L122.8,119.8 C123.1,119.8 123.4,119.8 123.4,120.2 L123.4,127.2 Z" id="路径"></path>
                <path d="M116,97.3 L109.1,97.3 C108.6,97.3 108.5,97.1 108.5,96.7 L108.5,94.3 C108.5,93.7 108.7,93.5 109.2,93.5 L116,93.5 L116,97.3 Z" id="路径"></path>
                <path d="M104.8,78.5 C105.8,78.5 106.8,78.6 107.8,78.5 C108.3,78.5 108.5,78.7 108.5,79.2 L108.5,85.4 C108.5,85.9 108.3,86 107.9,86 L105.3,86 C105.1,86 104.8,85.8 104.8,85.6 L104.8,78.7 C104.8,78.7 104.8,78.6 104.8,78.5 L104.8,78.5 Z" id="路径"></path>
                <path d="M116,93.5 L116,90.3 C116,89.9 116.1,89.8 116.5,89.8 L123,89.8 C123.2,89.8 123.5,90 123.5,90.2 L123.5,93.5 L116,93.5 Z" id="路径"></path>
                <path d="M127.1,71.2 L127.1,68 C127.1,67.5 127.3,67.3 127.8,67.3 L130.2,67.3 C130.6,67.3 130.8,67.4 130.8,67.9 L130.8,71.1 L127.1,71.2 Z" id="路径"></path>
                <path d="M127.1,116 L127.1,119.2 C127.1,119.6 127,119.8 126.6,119.7 L123.8,119.7 C123.4,119.7 123.3,119.5 123.3,119.2 C123.3,118.1 123.3,117.1 123.3,116 L127.1,116 Z" id="路径"></path>
                <path d="M114,86.1 C112.2,86.1 112.2,86.1 112.2,84.3 C112.2,83.7 112.1,82.9 112.4,82.5 C112.7,82.1 113.5,82.4 114.1,82.3 L115.4,82.3 C115.8,82.3 115.9,82.5 115.9,82.8 L115.9,85.4 C115.9,85.8 115.8,86 115.3,86 C114.8,86 114.5,86.1 114,86.1 L114,86.1 Z" id="路径"></path>
                <path d="M101,86.1 L104.3,86.1 C104.5,86.2 104.6,86.3 104.7,86.5 L104.7,89.4 C104.6,89.6 104.5,89.8 104.3,89.8 L101.5,89.8 C101.2,89.8 101.1,89.7 101.1,89.4 L101,86.1 Z" id="路径"></path>
                <path d="M67.4,86.1 L67.4,89.2 C67.4,89.7 67.2,89.9 66.7,89.8 L64.2,89.8 C63.8,89.8 63.6,89.7 63.6,89.2 L63.6,86.6 C63.6,86.2 63.7,85.9 64.2,86 C65.3,86.1 66.4,86.1 67.4,86.1 Z" id="路径"></path>
                <path d="M44.9,63.6 L41.7,63.6 C41.3,63.6 41.2,63.4 41.2,63 C41.2,61.9 41.2,60.8 41.1,59.8 L44.9,59.8 L44.9,63.6 Z" id="路径"></path>
                <path d="M50.5,89.8 C50,89.8 49.6,89.8 49.1,89.8 C48.9,89.7 48.7,89.6 48.7,89.4 C48.7,88.5 48.7,87.5 48.7,86.6 C48.8,86.4 48.9,86.2 49.1,86.2 L51.9,86.2 C52.1,86.2 52.3,86.4 52.3,86.6 L52.3,89.4 C52.3,89.8 52.1,89.9 51.8,89.9 L50.5,89.8 Z" id="路径"></path>
                <path d="M43.1,89.8 L41.7,89.8 C41.3,89.8 41.1,89.7 41.2,89.3 L41.2,86.5 C41.2,86.2 41.3,86 41.7,86 L44.5,86 C44.8,86 45,86.2 45,86.5 L45,89.3 C45,89.6 44.8,89.8 44.5,89.8 L43.1,89.8 Z" id="路径"></path>
                <path d="M37.5,26.2 L37.5,19.5 C37.5,18.9 37.3,18.7 36.7,18.8 L33.7,18.8 L33.7,15.7 C33.7,15.2 33.8,15 34.4,15 L36.6,15 C37.3,15 37.5,15 37.5,14.1 C37.5,13.2 37.5,12.2 37.5,11.2 C37.8,11.2 38.1,11.3 38.4,11.3 L48,11.3 C48.5,11.3 48.7,11.4 48.7,11.9 L48.7,22.6 C47.7,22.6 46.7,22.6 45.7,22.6 C45.1,22.6 44.9,22.4 45,21.9 L45,15.9 C45,15.3 44.8,15.1 44.2,15.2 L41.8,15.2 C41.4,15.2 41.2,15.3 41.3,15.8 L41.3,22 C41.3,22.5 41.5,22.6 41.9,22.6 L44.5,22.6 C44.8,22.6 45,22.6 45,23 L45,26.3 C44.3,26.3 43.7,26.4 43,26.4 C41.1,26.2 39.3,26.2 37.5,26.2 L37.5,26.2 Z" id="路径"></path>
                <path d="M82.3,22.6 L82.3,26.2 C81.3,26.2 80.3,26.3 79.2,26.3 C78.6,26.3 78.4,26.5 78.5,27 L78.5,29.5 C78.5,29.9 78.4,30.1 77.9,30.1 L71.6,30.1 C71.3,30.1 71,30.1 71,29.7 C71,27.4 71,25 71,22.7 L74.1,22.7 C74.6,22.7 74.8,22.5 74.8,22 L74.8,19.6 C74.8,19.1 74.6,18.9 74.1,18.9 L71.1,18.9 C71.1,17.8 71.1,16.7 71.1,15.6 C71.2,15.4 71.3,15.2 71.5,15.2 L78,15.2 C78.5,15.2 78.5,15.5 78.5,15.8 L78.5,21.9 C78.5,22.5 78.7,22.7 79.3,22.7 C80.4,22.6 81.4,22.6 82.3,22.6 L82.3,22.6 Z" id="路径"></path>
                <path d="M82.3,22.6 L82.3,15.6 C82.3,15.2 82.4,15.1 82.8,15.1 L89.3,15.1 C89.7,15.1 89.8,15.2 89.8,15.6 L89.8,18.3 C89.8,18.7 89.6,18.8 89.2,18.8 L86.6,18.8 C86.2,18.8 86,18.9 86,19.4 L86,21.8 C86,22.4 85.8,22.6 85.2,22.6 L82.3,22.6 Z" id="路径"></path>
                <path d="M71.2,22.5 C70.2,22.5 69.1,22.5 68.1,22.5 C67.6,22.5 67.4,22.3 67.4,21.8 L67.4,19.3 C67.4,18.9 67.5,18.7 68,18.7 L71.2,18.7 L71.2,22.5 Z" id="路径"></path>
                <path d="M52.4,26.2 L55.5,26.2 C56,26.2 56.1,26.4 56.1,26.8 L56.1,29.9 L52.8,29.9 C52.5,29.9 52.3,29.7 52.3,29.4 L52.4,26.2 Z" id="路径"></path>
                <path d="M56.2,18.8 C56.2,19.8 56.2,20.7 56.1,21.7 C56,22.7 56.1,22.5 55.3,22.5 L52.4,22.5 C52.4,21.4 52.4,20.2 52.4,19.1 C52.4,19 52.7,18.7 52.8,18.7 L56.2,18.8 Z" id="路径"></path>
                <path d="M59.8,18.8 L63.1,18.8 C63.4,18.8 63.6,18.9 63.6,19.3 L63.6,22.1 C63.6,22.5 63.4,22.6 63.1,22.6 L60.5,22.6 C60.1,22.6 59.9,22.4 59.9,22 C59.9,21 59.9,19.9 59.8,18.8 L59.8,18.8 Z" id="路径"></path>
                <path d="M52.5,22.6 L52.5,26.2 C51.5,26.2 50.4,26.2 49.4,26.3 C48.9,26.3 48.7,26.2 48.7,25.7 L48.7,22.6 L52.5,22.6 Z" id="路径"></path>
                <path d="M59.8,18.8 L56.2,18.8 C56.2,17.7 56.1,16.5 56.2,15.4 C56.2,15.3 56.5,15.1 56.6,15.1 L59.5,15.1 C59.7,15.1 59.9,15.3 59.9,15.5 C59.9,16.6 59.9,17.7 59.8,18.8 L59.8,18.8 Z" id="路径"></path>
                <path d="M15,59.8 L22.6,59.8 L22.6,63.6 L19.4,63.6 C19,63.6 18.8,63.8 18.9,64.2 L18.9,66.8 C18.9,67.2 19.1,67.4 19.5,67.4 L22,67.4 C22.5,67.4 22.7,67.3 22.7,66.8 L22.7,63.7 L25.9,63.7 C26.3,63.7 26.4,63.8 26.4,64.2 L26.4,66.9 C26.4,67.3 26.6,67.5 26.9,67.5 L29.5,67.5 C29.9,67.5 30.1,67.6 30.1,68.1 L30.1,71.3 L19.6,71.3 C19,71.3 18.7,71.4 18.8,72.1 L18.8,75 L15,75 L15,71.9 C15,71.4 14.8,71.3 14.4,71.3 L11.9,71.3 C11.4,71.3 11.2,71.2 11.2,70.6 L11.2,67.5 L14.4,67.5 C14.8,67.5 15,67.4 15,66.9 C15,64.5 15,62.2 15,59.8 L15,59.8 Z" id="路径"></path>
                <path d="M18.8,86.1 L18.8,89.2 C18.8,89.6 19,89.8 19.4,89.8 L21.9,89.8 C22.4,89.8 22.6,89.9 22.6,90.4 L22.6,93.4 C21.6,93.4 20.7,93.5 19.7,93.5 L15.9,93.5 C15.2,93.5 15.1,93.3 15.1,92.7 C15.1,92.1 15.1,91.2 15.1,90.5 C15.1,90 15,89.7 14.4,89.8 L11.9,89.8 C11.5,89.8 11.3,89.7 11.3,89.2 L11.3,86.6 C11.3,86.3 11.3,86 11.7,86.1 L18.8,86.1 Z" id="路径"></path>
                <path d="M22.6,97.3 L22.6,101.1 L15.8,101.1 C15.2,101.1 15,100.9 15,100.3 L15,97.9 C15,97.5 15.1,97.3 15.6,97.3 L22.6,97.3 Z" id="路径"></path>
                <path d="M18.8,86.1 L18.8,82.8 C18.8,82.5 19,82.3 19.3,82.3 L22.1,82.3 C22.4,82.3 22.6,82.4 22.6,82.8 L22.6,85.6 C22.6,86 22.4,86.1 22.1,86.1 L18.8,86.1 Z" id="路径"></path>
                <path d="M18.8,74.8 C19.8,74.8 20.8,74.9 21.8,74.9 C22.3,74.9 22.5,75.1 22.5,75.6 L22.5,78 C22.5,78.4 22.4,78.6 21.9,78.6 L19.3,78.6 C18.9,78.6 18.8,78.5 18.8,78.1 L18.8,74.8 Z" id="路径"></path>
                <path d="M22.6,93.5 C23.6,93.5 24.6,93.6 25.6,93.5 C26.1,93.5 26.3,93.6 26.3,94.2 L26.3,96.6 C26.3,97.1 26.2,97.3 25.7,97.3 L22.6,97.3 L22.6,93.5 Z" id="路径"></path>
                <path d="M11.3,95.4 L11.3,96.5 C11.3,96.9 11.2,97.2 10.6,97.2 L8.2,97.2 C7.7,97.2 7.5,97.1 7.6,96.6 L7.6,94.1 C7.6,93.6 7.8,93.4 8.3,93.5 L10.7,93.5 C11.2,93.5 11.4,93.6 11.3,94.1 C11.2,94.6 11.3,95 11.3,95.4 Z" id="路径"></path>
                <path d="M28.1,89.8 L29.4,89.8 C29.8,89.8 29.9,89.9 29.9,90.3 L29.9,93.1 C29.9,93.4 29.7,93.6 29.4,93.6 L26.7,93.6 C26.4,93.6 26.2,93.5 26.2,93.1 L26.2,90.3 C26.2,90 26.3,89.9 26.7,89.9 C27.2,89.8 27.7,89.8 28.1,89.8 L28.1,89.8 Z" id="路径"></path>
                <path d="M26.3,88 C26.2,88.6 26.4,89.4 26.1,89.7 C25.8,90 25,89.8 24.4,89.8 L23.1,89.8 C22.7,89.8 22.5,89.7 22.5,89.3 L22.5,86.6 C22.5,86.2 22.6,86.1 23,86.1 L25.7,86.1 C26.1,86.1 26.3,86.3 26.2,86.7 C26.1,87.1 26.2,87.5 26.3,88 L26.3,88 Z" id="路径"></path>
                <path d="M82.3,123.4 L85.6,123.5 C86,123.5 86,123.2 86,122.9 L86,120.4 C86,119.9 86.1,119.7 86.6,119.7 L89.1,119.7 C89.5,119.7 89.7,119.8 89.7,120.3 L89.7,126.6 C89.7,127 89.5,127.2 89.1,127.2 L82.8,127.2 C82.4,127.2 82.2,127.1 82.2,126.6 L82.3,123.4 Z" id="路径"></path>
                <path d="M63.6,127.2 L60.5,127.2 C60.1,127.2 59.9,127.1 59.9,126.6 L59.9,124 C59.9,123.6 60.1,123.5 60.5,123.5 L66.8,123.5 C67.2,123.5 67.4,123.6 67.4,124.1 L67.4,126.7 C67.4,127.1 67.2,127.3 66.8,127.3 L63.6,127.2 Z" id="路径"></path>
                <path d="M74.8,123.3 C74.8,124.5 74.9,125.6 74.9,126.8 C74.9,126.9 74.6,127.1 74.5,127.1 L71.6,127.1 C71.4,127 71.2,126.9 71.2,126.7 L71.2,123.8 C71.2,123.4 71.4,123.4 71.7,123.4 L74.1,123.4 C74.3,123.4 74.6,123.4 74.8,123.3 L74.8,123.3 Z" id="路径"></path>
                <path d="M37.5,30 L44.5,30 C44.8,30 45,29.9 45,29.5 L45,26.1 C46,26.1 47,26.2 48,26.1 C48.6,26.1 48.8,26.3 48.8,26.9 L48.8,32.9 C48.8,33.4 49,33.6 49.5,33.6 L51.9,33.6 C52.3,33.6 52.5,33.7 52.5,34.2 L52.5,37.4 L49.2,37.4 C48.8,37.4 48.7,37.6 48.7,37.9 L48.7,40.4 C48.7,40.9 48.5,41.1 48,41.1 L42,41.1 C41.4,41.1 41.3,41.3 41.3,41.8 L41.3,44.3 C41.3,44.6 41.2,44.8 40.8,44.8 L37.5,44.8 C37.5,44.7 37.5,44.7 37.5,44.6 C37.5,39.8 37.5,34.9 37.5,30 L37.5,30 Z M41.2,35.6 L41.2,37 C41.2,37.5 41.3,37.5 41.7,37.5 L44.5,37.5 C44.8,37.5 45,37.3 45,37 L45,34.2 C45,33.9 44.9,33.7 44.5,33.7 L41.7,33.7 C41.5,33.8 41.3,33.9 41.3,34.1 C41.2,34.6 41.2,35.1 41.2,35.6 Z" id="形状"></path>
                <path d="M30,48.7 L19.5,48.7 C19,48.7 18.7,48.5 18.8,48 L18.8,45.6 C18.8,45.2 18.9,45 19.4,45 L29.5,45 C29.8,45 30,45.1 30,45.5 L30,48.7 Z" id="路径"></path>
                <path d="M22.6,37.5 C22.6,38.5 22.5,39.5 22.6,40.5 C22.6,41 22.5,41.2 21.9,41.2 L19.4,41.2 C19,41.2 18.8,41 18.8,40.6 L18.8,38 C18.8,37.7 18.9,37.5 19.2,37.5 L22.6,37.5 Z" id="路径"></path>
                <path d="M31.9,41.2 C30,41.2 30,41.2 30,39.3 C30,37.4 30,37.4 31.9,37.4 C33.8,37.4 33.8,37.4 33.8,39.3 C33.8,39.9 33.9,40.7 33.6,41 C33.3,41.3 32.4,41.2 31.9,41.2 L31.9,41.2 Z" id="路径"></path>
                <path d="M18.8,9.5 L18.8,18 C18.8,18.6 18.6,18.8 18.1,18.8 L0.8,18.8 C0.2,18.8 0.1,18.6 0.1,18.1 L0.1,0.8 C0.1,0.3 0.2,0.1 0.8,0.1 L18.1,0.1 C18.6,0.1 18.8,0.3 18.8,0.8 L18.8,9.5 Z M9.3,15.1 L14.3,15.1 C14.8,15.1 15,15 15,14.4 L15,4.5 C15,4 14.8,3.8 14.3,3.8 L4.5,3.8 C4,3.8 3.8,3.9 3.8,4.5 L3.8,14.4 C3.8,14.9 4,15 4.5,15 C6.1,15.1 7.7,15.1 9.3,15.1 Z" id="形状"></path>
                <path d="M112.2,9.4 L112.2,0.9 C112.2,0.3 112.3,0.1 112.9,0.1 L130.1,0.1 C130.7,0.1 130.9,0.3 130.9,0.9 L130.9,18.1 C130.9,18.6 130.8,18.8 130.2,18.8 L112.9,18.8 C112.4,18.8 112.2,18.6 112.2,18.1 C112.2,15.2 112.2,12.3 112.2,9.4 Z M121.6,3.8 L116.6,3.8 C116.2,3.8 116,3.9 116,4.4 L116,14.4 C116,14.9 116.1,15.1 116.6,15 L126.5,15 C127,15 127.2,14.8 127.2,14.3 L127.2,4.5 C127.2,4 127,3.8 126.5,3.8 C124.9,3.9 123.2,3.8 121.6,3.8 L121.6,3.8 Z" id="形状"></path>
                <path d="M9.4,130.9 L0.8,130.9 C0.2,130.9 -3.55271368e-15,130.7 -3.55271368e-15,130.2 L-3.55271368e-15,113 C-3.55271368e-15,112.4 0.2,112.2 0.8,112.2 L18,112.2 C18.6,112.2 18.8,112.4 18.8,113 L18.8,130.2 C18.8,130.8 18.6,130.9 18,130.9 L9.4,130.9 Z M15,121.6 L15,116.6 C15,116.2 14.9,116 14.4,116 L4.4,116 C3.9,116 3.8,116.2 3.8,116.7 L3.8,126.6 C3.8,127.1 3.9,127.3 4.4,127.3 L14.3,127.3 C14.8,127.3 15,127.1 15,126.6 C15,124.9 15,123.2 15,121.6 L15,121.6 Z" id="形状"></path>
                <path d="M93.5,30 L101,30 L101,37.6 L97.7,37.6 C97.2,37.6 97.2,38 97.2,38.3 L97.2,48.7 L94.2,48.7 C93.7,48.7 93.5,48.5 93.5,48 L93.5,38.3 C93.5,37.4 93.5,37.4 92.7,37.4 L90.4,37.4 C90,37.4 89.7,37.3 89.8,36.8 L89.8,34.2 C89.8,33.8 90,33.6 90.4,33.6 L93,33.6 C93.4,33.6 93.5,33.5 93.5,33.1 L93.5,30 Z" id="路径"></path>
                <path d="M93.5,56.2 L96.6,56.2 C97.1,56.2 97.3,56.4 97.2,56.9 L97.2,59.5 C97.2,59.9 97.1,60 96.7,60 L90.3,60 C89.9,60 89.8,59.8 89.8,59.5 L89.8,56.8 C89.8,56.4 90,56.3 90.4,56.3 L93.5,56.2 Z" id="路径"></path>
                <path d="M97.3,48.7 L101,48.7 L101,52.5 L98,52.5 C97.5,52.5 97.3,52.4 97.3,51.8 C97.3,50.7 97.3,49.7 97.3,48.7 Z" id="路径"></path>
                <path d="M123.4,44.9 L127.2,44.9 L127.2,48.7 L123.4,48.7 C123.4,47.4 123.4,46.2 123.4,44.9 L123.4,44.9 Z" id="路径"></path>
                <path d="M130.9,52.4 L127.1,52.4 L127.1,48.6 L130.3,48.6 C130.7,48.6 130.9,48.8 130.9,49.2 L130.9,52.4 Z" id="路径"></path>
                <path d="M3.9,71.2 L0.1,71.2 L0.1,64.4 C0.1,63.8 0.3,63.7 0.8,63.7 L3.9,63.7 L3.9,71.2 Z" id="路径"></path>
            </g>
            <path d="M53.5,60.9 L56.8,60.9 C57.2,60.9 57.3,60.7 57.3,60.4 L57.3,57.9 C57.3,57.4 57.5,57.2 58,57.2 L64,57.2 C64.6,57.2 64.7,57 64.7,56.5 L64.7,54 C64.7,53.6 64.8,53.5 65.2,53.5 L68.5,53.5 L68.5,56.7 C68.5,57.1 68.6,57.2 69,57.2 L71.6,57.2 C72.1,57.2 72.3,57.3 72.3,57.8 L72.3,64 C72.3,64.5 72.1,64.7 71.6,64.7 L61,64.7 C61,63.6 61,62.5 61,61.4 C61,61 60.8,61 60.5,61 L57.8,61 C57.4,61 57.3,61.2 57.3,61.5 L57.3,64.1 C57.3,64.6 57.5,64.7 57.9,64.7 L61,64.7 L61,75.9 L57.2,75.9 C57.2,75.7 57.3,75.5 57.3,75.3 L57.3,65.5 C57.3,64.9 57.2,64.7 56.6,64.7 L54.2,64.7 C53.8,64.7 53.5,64.6 53.6,64.1 C53.5,63 53.5,62 53.5,60.9 L53.5,60.9 Z M66.6,57.2 L65.2,57.2 C64.8,57.2 64.7,57.3 64.7,57.7 L64.7,60.3 C64.7,60.7 64.8,60.9 65.3,60.9 L67.9,60.9 C68.3,60.9 68.5,60.8 68.5,60.3 C68.5,59.8 68.5,59.4 68.5,59 C68.5,58.6 68.7,57.6 68.4,57.3 C68.1,57 67.2,57.2 66.6,57.2 L66.6,57.2 Z" id="形状" fill="#000000" fill-rule="nonzero"></path>
            <path d="M68.4,53.5 L68.4,50.3 C68.4,49.9 68.2,49.7 67.8,49.7 L65.4,49.7 C64.8,49.7 64.7,49.5 64.7,49 L64.7,43 C64.7,42.4 64.5,42.2 63.9,42.2 L60.9,42.2 L60.9,39 C60.9,38.6 60.7,38.6 60.4,38.6 L57.8,38.6 C57.4,38.6 57.2,38.5 57.2,38 L57.2,31.7 C57.2,31.3 57.3,31.1 57.7,31.1 L60.1,31.1 C60.7,31.1 60.9,31.2 60.9,31.8 L60.9,37.8 C60.9,38.4 61.1,38.6 61.6,38.5 L64.6,38.5 L64.6,41.6 C64.6,42.1 64.8,42.3 65.3,42.2 C66.3,42.2 67.4,42.2 68.4,42.1 L68.4,45.4 C68.4,45.7 68.5,45.9 68.9,45.9 L72.2,45.9 C72.2,47.1 72.2,48.3 72.1,49.5 L72.1,52.6 C72.1,53.2 71.9,53.4 71.3,53.4 C70.4,53.5 69.4,53.5 68.4,53.5 L68.4,53.5 Z" id="路径" fill="#000000" fill-rule="nonzero"></path>
            <path d="M98.3,57.2 L98.3,60.3 C98.3,60.8 98.1,60.9 97.7,60.9 L95.1,60.9 C94.7,60.9 94.5,60.8 94.5,60.4 L94.5,54 C94.5,53.6 94.7,53.4 95.1,53.5 L97.7,53.5 C98.2,53.5 98.3,53.6 98.3,54.1 L98.3,57.2 Z" id="路径" fill="#000000" fill-rule="nonzero"></path>
            <path d="M79.6,60.2 L79.6,62.5 C79.6,63 79.5,63.2 79,63.2 L76.5,63.2 C76.1,63.2 75.9,63 75.9,62.6 L75.9,57.7 C75.9,57.4 76,57.2 76.4,57.2 L79.2,57.2 C79.6,57.2 79.7,57.4 79.7,57.7 C79.6,58.5 79.6,59.4 79.6,60.2 L79.6,60.2 Z" id="路径" fill="#000000" fill-rule="nonzero"></path>
            <path d="M87.2,60.9 C87.2,59.8 87.2,58.7 87.2,57.7 C87.3,57.5 87.4,57.3 87.6,57.3 L90.4,57.3 C90.6,57.4 90.8,57.5 90.8,57.7 L90.8,60.5 C90.8,60.7 90.6,60.9 90.4,61 C90.4,60.9 87.2,60.9 87.2,60.9 L87.2,60.9 Z" id="路径" fill="#000000" fill-rule="nonzero"></path>
            <path d="M60.9,79.6 L60.9,75.8 L62.6,75.8 C63,75.8 63.1,76 63.1,76.3 L63.1,79 C63.1,79.4 62.9,79.5 62.6,79.5 L60.9,79.6 Z" id="路径" fill="#000000" fill-rule="nonzero"></path>
            <path d="M87.2,60.9 L87.2,62.6 C87.2,63 87.1,64.3 86.7,64.3 C85.8,64.4 84.9,64.4 84,64.3 C83,64.2 83.7,62.2 83.5,61.7 C83.3,61.2 83.5,61 84,61 L87.2,60.9 Z" id="路径" fill="#000000" fill-rule="nonzero"></path>
            <path d="M87.1,117 L90.2,117 C90.7,117 90.9,117.2 90.8,117.7 L90.8,120.3 C90.8,120.7 90.9,120.8 91.3,120.8 L94,120.8 C94.5,120.8 94.6,120.6 94.6,120.2 L94.6,117.7 C94.6,117.3 94.7,117.1 95.2,117.1 L102.2,117.1 L102.2,120.9 L98.9,120.8 C98.5,120.8 98.4,121.1 98.4,121.4 L98.4,124 C98.4,124.4 98.3,124.6 97.8,124.6 L91.5,124.6 C91.1,124.6 90.9,124.4 90.9,124 L90.9,121.5 C90.9,121 90.7,120.8 90.2,120.9 L87.7,120.9 C87.3,120.9 87.1,120.8 87.1,120.4 C87.1,119.2 87.1,118.1 87.1,117 Z" id="路径" fill="#000000" fill-rule="nonzero"></path>
            <path d="M94.6,132 L91.5,132 C91.1,132 90.9,131.9 90.9,131.4 L90.9,128.8 C90.9,128.4 91,128.3 91.4,128.3 L97.9,128.3 C98.3,128.3 98.4,128.4 98.4,128.8 L98.4,131.5 C98.4,131.9 98.2,132 97.8,132 L94.6,132 Z" id="路径" fill="#000000" fill-rule="nonzero"></path>
            <path d="M83.4,124.4 L86.5,124.4 C87,124.4 87.2,124.5 87.2,125 L87.2,127.5 C87.2,127.9 87.1,128.1 86.6,128.1 L84,128.1 C83.7,128.1 83.4,128 83.5,127.6 L83.4,124.4 Z" id="路径" fill="#000000" fill-rule="nonzero"></path>
            <path d="M79.6,124.4 L79.6,121.4 C79.6,120.9 79.8,120.7 80.3,120.7 L82.8,120.7 C83.2,120.7 83.4,120.9 83.4,121.3 L83.4,124.4 L79.6,124.4 Z" id="路径" fill="#000000" fill-rule="nonzero"></path>
            <path d="M102.1,120.8 C103.2,120.8 104.3,120.7 105.4,120.8 C105.6,120.9 105.7,121 105.8,121.2 L105.8,124.1 C105.7,124.3 105.6,124.4 105.4,124.5 L102.6,124.5 C102.3,124.5 102.1,124.4 102.1,124 L102.1,120.8 Z" id="路径" fill="#000000" fill-rule="nonzero"></path>
            <path d="M143.2,64.7 L143.2,68.5 L140.8,68.5 C139.3,68.5 139.5,68.7 139.5,67.2 C139.5,66.4 139.5,65.6 139.4,64.8 L143.2,64.7 Z" id="路径" fill="#000000" fill-rule="nonzero"></path>
            <path d="M126.3,128.2 C124.4,128.2 124.4,128.2 124.4,126.3 L124.4,125 C124.4,124.6 124.5,124.4 124.9,124.4 L127.6,124.4 C128,124.4 128.1,124.5 128.1,124.9 L128.1,127.6 C128.1,128 127.9,128.2 127.5,128.1 L126.3,128.1 L126.3,128.2 Z" id="路径" fill="#000000" fill-rule="nonzero"></path>
            <path d="M132,109.5 L139.4,109.5 L139.4,112.8 C139.4,113.3 139.1,113.3 138.8,113.3 L132,113.3 L132,109.5 Z" id="路径" fill="#000000" fill-rule="nonzero"></path>
            <path d="M87.1,38.5 L87.1,34.8 L90.2,34.8 C90.7,34.8 90.9,35 90.9,35.5 L90.9,37.9 C90.9,38.4 90.7,38.6 90.2,38.6 L87.1,38.5 Z" id="路径" fill="#000000" fill-rule="nonzero"></path>
            <path d="M38.6,79.6 L38.6,82.7 C38.6,83.2 38.4,83.4 37.9,83.3 L35.4,83.3 C35,83.3 34.8,83.2 34.8,82.7 L34.8,80.1 C34.8,79.7 35,79.5 35.3,79.5 L38.6,79.6 Z" id="路径" fill="#000000" fill-rule="nonzero"></path>
            <path d="M57.2,51.5 C57.2,51 57.2,50.6 57.2,50.1 C57.3,49.9 57.4,49.7 57.6,49.7 L60.4,49.7 C60.7,49.7 60.9,49.9 60.9,50.2 L60.9,53 C60.9,53.3 60.8,53.5 60.4,53.5 L57.7,53.5 C57.3,53.5 57.2,53.3 57.2,53 C57.2,52.7 57.2,52 57.2,51.5 L57.2,51.5 Z" id="路径" fill="#000000" fill-rule="nonzero"></path>
            <path d="M25.4,31 L20.5,31 C20,31 19.8,30.9 19.8,30.4 L19.8,20.5 C19.8,20 20,19.8 20.5,19.8 L30.3,19.8 C30.8,19.8 31,20 31,20.5 L31,30.4 C31,31 30.8,31.1 30.3,31.1 C28.7,31 27,31 25.4,31 L25.4,31 Z" id="路径" fill="#000000" fill-rule="nonzero"></path>
            <path d="M137.6,19.8 L142.5,19.8 C143,19.8 143.2,20 143.2,20.5 L143.2,30.4 C143.2,30.9 143.1,31.1 142.5,31.1 L132.6,31.1 C132.1,31.1 131.9,30.9 132,30.5 L132,20.5 C132,20 132.2,19.9 132.6,19.9 L137.6,19.8 Z" id="路径" fill="#000000" fill-rule="nonzero"></path>
            <path d="M31,137.6 L31,142.5 C31,143 30.9,143.2 30.3,143.2 L20.4,143.2 C19.9,143.2 19.8,143 19.8,142.5 L19.8,132.6 C19.8,132.1 19.9,131.9 20.4,131.9 L30.4,131.9 C30.9,131.9 31,132.1 31,132.5 L31,137.6 Z" id="路径" fill="#000000" fill-rule="nonzero"></path>
            <path d="M66.6,57.2 C67.2,57.2 68,57.1 68.3,57.4 C68.6,57.7 68.4,58.5 68.4,59.1 C68.4,59.7 68.4,60 68.4,60.4 C68.4,60.8 68.2,61 67.8,61 L65.2,61 C64.8,61 64.6,60.8 64.6,60.4 L64.6,57.8 C64.6,57.4 64.7,57.3 65.1,57.3 L66.6,57.2 Z" id="路径" fill="#FFFFFF" fill-rule="nonzero"></path>
            <path d="M60.9,64.7 L57.8,64.7 C57.4,64.7 57.1,64.6 57.2,64.1 L57.2,61.5 C57.2,61.1 57.3,61 57.7,61 L60.4,61 C60.7,61 60.9,61 60.9,61.4 L60.9,64.7 Z" id="路径" fill="#FFFFFF" fill-rule="nonzero"></path>
            <circle id="椭圆形" fill="#000000" fill-rule="nonzero" cx="81.8" cy="83" r="12.3"></circle>
            <path d="M81.6,65.1 C72.4,65.1 65,72.5 65,81.7 C65,90.9 72.4,98.3 81.6,98.3 C90.7,98.3 98.2,90.9 98.2,81.7 C98.2,72.6 90.8,65.1 81.6,65.1 Z M85.3,72 C86.1,72 86.8,73.8 86.8,76.1 C86.8,78.4 86.1,80.2 85.3,80.2 C84.5,80.2 83.8,78.4 83.8,76.1 C83.8,73.8 84.5,72 85.3,72 Z M77.9,72 C78.7,72 79.4,73.8 79.4,76.1 C79.4,78.4 78.7,80.2 77.9,80.2 C77.1,80.2 76.4,78.4 76.4,76.1 C76.4,73.8 77.1,72 77.9,72 Z M93.4,83.1 C93.3,83.2 93.2,83.2 93.1,83.2 C92.9,83.2 92.7,83.1 92.6,82.9 C92.5,82.7 92.3,82.5 92.1,82.4 C91.7,88.2 86.7,92.6 80.8,92.2 C75.5,91.8 71.3,87.6 71,82.4 C70.8,82.5 70.7,82.7 70.6,82.9 C70.5,83.1 70.3,83.2 70.1,83.2 C70,83.2 69.9,83.2 69.8,83.1 C69.5,82.9 69.4,82.6 69.6,82.3 C70.4,81 72.1,80.5 73.4,81.3 C73.7,81.4 73.8,81.8 73.7,82.1 C73.6,82.4 73.2,82.5 72.9,82.4 L72.8,82.4 C72.6,82.3 72.4,82.2 72.2,82.2 C72.5,87.4 76.9,91.4 82.1,91.1 C86.9,90.9 90.8,87 91,82.2 C90.8,82.2 90.6,82.3 90.4,82.4 C90.1,82.6 89.8,82.5 89.6,82.2 C89.4,81.9 89.5,81.6 89.8,81.4 C91.1,80.6 92.8,81.1 93.6,82.4 C93.8,82.6 93.7,82.9 93.4,83.1 L93.4,83.1 Z" id="形状" fill="#05EB05" transform="translate(81.600000, 81.700000) rotate(-180.000000) translate(-81.600000, -81.700000) "></path>
            <path d="M64.1,67.8 L66.4,67.8 C66.7,67.8 66.9,68 66.9,68.3 L66.9,72.4 C66.9,72.7 66.7,72.9 66.4,72.9 L64.1,72.9 C63.8,72.9 63.6,72.7 63.6,72.4 L63.6,68.3 C63.5,68.1 63.8,67.8 64.1,67.8 Z" id="路径" fill="#000000" fill-rule="nonzero"></path>
            <path d="M93.7,63.4 L96,63.4 C96.3,63.4 96.5,63.6 96.5,63.9 L96.5,69.1 C96.5,69.4 96.3,69.6 96,69.6 L93.7,69.6 C93.4,69.6 93.2,69.4 93.2,69.1 L93.2,63.9 C93.2,63.6 93.4,63.4 93.7,63.4 L93.7,63.4 Z" id="路径" fill="#000000" fill-rule="nonzero"></path>
            <path d="M88.6,64.1 L90.9,64.1 C91.2,64.1 91.4,64.3 91.4,64.6 L91.4,66 C91.4,66.3 91.2,66.5 90.9,66.5 L88.6,66.5 C88.3,66.5 88.1,66.3 88.1,66 L88.1,64.6 C88.1,64.3 88.3,64.1 88.6,64.1 Z" id="路径" fill="#000000" fill-rule="nonzero"></path>
            <path d="M67.6,95 L69.9,95 C70.2,95 70.4,95.2 70.4,95.5 L70.4,96.8 C70.4,97.1 70.2,97.3 69.9,97.3 L67.6,97.3 C67.3,97.3 67.1,97.1 67.1,96.8 L67.1,95.5 C67.1,95.3 67.3,95 67.6,95 Z" id="路径" fill="#000000" fill-rule="nonzero"></path>
            <path d="M96.3,71.1 L98.6,71.1 C98.9,71.1 99.1,71.3 99.1,71.6 L99.1,73.2 C99.1,73.5 98.9,73.7 98.6,73.7 L96.3,73.7 C96,73.7 95.8,73.5 95.8,73.2 L95.8,71.6 C95.8,71.3 96,71.1 96.3,71.1 Z" id="路径" fill="#000000" fill-rule="nonzero"></path>
            <path d="M93.6,95.9 L96.1,95.9 C96.4,95.9 96.6,96.1 96.6,96.4 L96.6,100.7 C96.6,101 96.4,101.2 96.1,101.2 L93.6,101.2 C93.3,101.2 93.1,101 93.1,100.7 L93.1,96.4 C93,96.2 93.3,95.9 93.6,95.9 Z" id="路径" fill="#000000" fill-rule="nonzero"></path>
            <path d="M95.4,90.8 L98,90.8 C98.3,90.8 98.5,91 98.5,91.3 L98.5,93.7 C98.5,94 98.3,94.2 98,94.2 L95.5,94.2 C95.2,94.2 95,94 95,93.7 L95,91.3 C94.9,91.1 95.1,90.8 95.4,90.8 Z" id="路径" fill="#000000" fill-rule="nonzero"></path>
            <path d="M62,92.2 L65.7,92.2 C66,92.2 66.2,92.4 66.2,92.7 L66.2,98.4 C66.2,98.7 66,98.9 65.7,98.9 L62,98.9 C61.7,98.9 61.5,98.7 61.5,98.4 L61.5,92.7 C61.4,92.4 61.7,92.2 62,92.2 Z" id="路径" fill="#000000" fill-rule="nonzero"></path>
            <path d="M86.7,97.9 L89.4,97.9 C89.7,97.9 89.9,98.1 89.9,98.4 L89.9,99.7 C89.9,100 89.7,100.2 89.4,100.2 L86.7,100.2 C86.4,100.2 86.2,100 86.2,99.7 L86.2,98.4 C86.2,98.2 86.4,97.9 86.7,97.9 Z" id="路径" fill="#000000" fill-rule="nonzero"></path>
        </g>
    </g>
</svg>